<svg width="52" height="43" viewBox="0 0 52 43" fill="none" xmlns="http://www.w3.org/2000/svg">
<path id="brand_img (Traced)" fill-rule="evenodd" clip-rule="evenodd" d="M2.59187 18.7574L4.50214 29.5493L5.83539 27.3231C6.56809 26.099 7.88952 24.5333 8.77179 23.8437C10.7763 22.277 11.5746 22.6937 12.1546 25.6109C12.5129 27.4137 12.424 27.7366 11.4855 28.0422C10.8605 28.2452 10.3577 28.138 10.2958 27.7886C10.1733 27.0967 8.21277 29.5097 7.72785 30.9494C7.18345 32.5647 8.1754 33.7365 9.83789 33.4422C12.1629 33.0307 13.0267 32.0383 13.2119 29.5667C13.4086 26.9355 15.5531 23.8999 17.4518 23.5638C18.1208 23.4454 19.194 23.711 19.8372 24.1542L21.0065 24.9599L21.2685 23.6173C21.4125 22.8788 21.4826 22.0042 21.4241 21.6739C21.2722 20.8156 22.152 19.721 23.1342 19.5471C23.6926 19.4483 24.2357 19.9814 24.7585 21.1414L25.5437 22.8841L26.1308 20.9035C26.753 18.8022 28.0896 17.707 29.1442 18.4336C30.0417 19.052 30.5932 18.8621 30.4383 17.9872C30.2985 17.1971 32.0515 15.8997 32.8568 16.1978C33.1191 16.2943 33.4541 17.7329 33.6011 19.394C33.8146 21.8015 33.9506 22.208 34.2732 21.3972C35.5847 18.1 37.9453 15.42 39.8317 15.0861C40.258 15.0106 40.9519 15.4448 41.3737 16.0511L42.1406 17.1528L43.374 15.6965C44.7237 14.1037 46.5122 13.1212 47.4178 13.4748C47.7873 13.6191 47.8696 12.9889 47.6459 11.7253C47.3304 9.94299 47.176 9.77162 46.063 9.96862L44.8297 10.1869L43.9685 5.32132L43.1072 0.455707L41.0589 0.81827L39.0102 1.18092L40.4163 7.2046C41.3431 11.1729 41.6517 13.2585 41.3217 13.3169C41.0459 13.3657 40.7262 12.8728 40.6108 12.2213C40.4464 11.2925 40.1039 11.0561 39.0218 11.1227C38.1895 11.1746 37.5169 10.8817 37.3274 10.3858C37.0831 9.74714 37.3518 9.50337 38.5294 9.29493C39.8771 9.05636 40.0173 8.86845 39.7926 7.59901C39.5813 6.40499 39.3145 6.18575 38.1605 6.25704C37.3282 6.30903 36.6557 6.01609 36.4661 5.52024C36.2218 4.88153 36.4905 4.63776 37.6681 4.42932C39.0282 4.18857 39.1571 4.00868 38.9223 2.68232L38.6606 1.20366L34.3689 2.10835L30.0773 3.01303L30.2203 4.74403C30.4464 7.48402 29.6688 7.89113 29.2057 5.2749C28.8133 3.05812 28.7555 2.99609 27.3209 3.25003C25.9865 3.48623 25.8656 3.66822 26.0898 5.09882C26.3309 6.63933 26.3181 6.65314 25.6388 5.56905C24.6709 4.02421 24.0111 3.85245 21.0324 4.37069L18.4411 4.82183L19.2419 9.5727L20.0422 14.3237L18.892 11.5164C18.259 9.9725 17.4404 7.90293 17.0721 6.91735C16.427 5.1904 16.3381 5.1424 14.6192 5.5952L12.8352 6.06504L12.741 11.3507L12.6464 16.6364L11.5754 11.4024L10.5039 6.16809L8.71854 6.63917C7.04682 7.0796 6.92131 7.25587 6.75187 9.39998L6.57113 11.6901L5.54094 9.48887C4.53595 7.34089 4.46438 7.29585 2.59617 7.62654L0.681594 7.96544L2.59187 18.7574ZM23.0176 8.65346C22.9402 9.0124 22.7798 8.75829 22.6613 8.08927C22.5429 7.42024 22.6065 7.12698 22.8023 7.43705C22.9987 7.74753 23.0956 8.29491 23.0176 8.65346ZM34.1685 10.3177C34.8384 14.1022 34.8525 14.9638 34.2468 15.071C33.8398 15.1431 33.4374 14.8189 33.3526 14.3512C33.1347 13.1463 32.9947 5.75837 33.189 5.72396C33.2778 5.70824 33.7185 7.77545 34.1685 10.3177ZM29.3277 15.8233C28.8297 16.5247 27.9443 15.3948 27.6388 13.669C27.4491 12.5971 26.9994 11.3499 26.6395 10.8977C26.1914 10.3347 26.0883 9.61182 26.312 8.60475C26.6152 7.24236 26.7448 7.44525 28.0726 11.3536C28.8603 13.674 29.4255 15.6856 29.3277 15.8233ZM16.2418 12.5169C16.363 13.2015 16.2392 13.6751 15.967 13.5687C15.6948 13.4623 15.5103 12.9169 15.5577 12.357C15.6754 10.9552 15.9779 11.0261 16.2418 12.5169ZM24.7378 14.5257C24.9482 15.7144 24.8983 16.7258 24.627 16.7738C24.3557 16.8219 23.9376 15.7533 23.698 14.3996C23.4294 12.8826 23.4721 12.0199 23.8088 12.1515C24.1094 12.2689 24.5274 13.337 24.7378 14.5257ZM6.68218 19.0721C6.78378 19.5368 6.64544 19.9567 6.37412 20.0048C6.10279 20.0528 5.75129 19.2685 5.59235 18.2614C5.36141 16.7928 5.42238 16.6084 5.90042 17.3287C6.2285 17.8226 6.58009 18.6074 6.68218 19.0721ZM9.59532 19.3157C9.09112 20.0256 8.67926 19.0814 8.79365 17.4799L8.91453 15.7915L9.37093 17.3898C9.62223 18.2691 9.72268 19.1355 9.59532 19.3157ZM17.5482 17.0232C17.6631 17.6718 17.3915 18.0546 16.7339 18.171C15.7832 18.3393 15.2284 17.4554 15.7892 16.6657C16.3494 15.8755 17.3823 16.0856 17.5482 17.0232ZM48.1437 14.5376C48.1835 14.7624 47.7053 15.2941 47.0809 15.7188C45.6306 16.7061 45.7659 17.5483 47.3302 17.2714C47.9952 17.1537 48.8332 17.4008 49.1928 17.8199C49.5524 18.239 49.8069 18.3204 49.7589 18.0002C49.7104 17.6801 49.4006 17.3124 49.0694 17.1833C48.7273 17.0497 48.4836 16.3226 48.5039 15.4975C48.5239 14.6991 48.4345 14.0651 48.3058 14.0879C48.177 14.1107 48.104 14.3133 48.1437 14.5376ZM38.1345 19.5675C36.2785 22.1833 37.7974 23.9463 40.0798 21.8251C41.293 20.697 42.4012 20.939 42.1363 22.2735C41.7204 24.3709 37.5924 26.1885 35.518 25.1873C34.5789 24.7342 34.4209 24.8044 34.1187 25.8073C33.9311 26.4291 33.408 27.0782 32.9555 27.2496C32.2476 27.5185 32.0583 27.139 31.5958 24.5261C30.9847 21.074 30.4126 21.1416 30.6195 24.6412C30.7327 26.5542 30.5795 27.0108 29.7763 27.153C29.0744 27.2773 28.6435 26.924 28.2649 25.9151L27.7352 24.5035L27.2669 26.0918C26.9816 27.0581 26.4163 27.7477 25.8229 27.8528C25.1298 27.9755 24.6929 27.6172 24.3129 26.6146C23.811 25.2909 23.7635 25.3701 23.5439 27.8949C23.3782 29.8045 23.0818 30.5906 22.5228 30.6027C22.0901 30.6126 21.1559 31.4489 20.4472 32.461C19.0864 34.4045 17.0588 35.1714 15.0144 34.5156C14.4404 34.3312 14.005 34.3721 14.0465 34.6061C14.178 35.3491 11.8852 36.5925 9.6559 36.9871C7.85725 37.3055 7.24923 37.1587 5.96083 36.0971C5.11262 35.3982 4.45815 35.0493 4.50629 35.3213C4.55452 35.5938 4.83991 35.9126 5.14051 36.03C5.44112 36.1474 5.91728 37.544 6.19873 39.1341L6.71041 42.0247L16.457 40.2995L26.2035 38.5742L25.6525 36.4643C24.6406 32.5934 25.0694 32.2796 27.173 35.3511L29.1403 38.2245L29.9723 35.1066L30.8039 31.9892L31.3366 34.7803L31.8698 37.5713L41.7362 35.8248L51.6026 34.0784L50.5002 27.8504C49.7398 23.5545 49.5519 21.3778 49.8943 20.8345C50.1676 20.4012 49.695 20.8698 48.8443 21.8754C47.0206 24.0329 44.5332 25.2399 43.7214 24.3619C42.6983 23.2554 42.9529 22.5525 44.7842 21.4269C46.9464 20.0983 47.0512 19.328 45.0212 19.6874C44.2269 19.8279 43.1856 19.6735 42.7076 19.3442C42.2295 19.0148 41.534 18.7992 41.1616 18.8651C40.7896 18.931 40.1926 18.7832 39.8345 18.5365C39.3535 18.2051 38.9106 18.4737 38.1345 19.5675ZM16.6687 27.469C15.2663 29.4454 15.9914 31.8863 17.6815 30.8801C18.6205 30.321 19.2132 28.0563 18.6598 27.1456C18.1172 26.2536 17.455 26.3608 16.6687 27.469Z" fill="#FFFF00"/>
</svg>
