<svg width="587" height="592" viewBox="0 0 587 592" fill="none" xmlns="http://www.w3.org/2000/svg">
<path d="M292.757 205.444C292.707 198.933 292.777 192.614 292.832 191.45L292.944 189.278L316.501 188.834L316.729 194.527C316.829 197.664 316.939 203.244 316.896 207.004C316.892 210.725 316.92 222.081 317.042 232.233C317.164 242.386 317.302 259.321 317.431 269.861C317.522 280.44 317.704 297.646 317.794 308.147C317.884 318.649 318.087 334.963 318.233 344.379C318.341 353.834 318.424 364.026 318.361 372.631L314.72 376.731C312.749 379.016 309.97 381.588 308.632 382.504C306.834 383.74 305.794 384.031 304.51 383.784C303.186 383.498 301.928 382.592 299.438 380.12C297.619 378.293 295.793 376.08 295.389 375.235C294.984 374.39 294.599 372.498 294.494 371.104C294.427 369.672 294.219 368.939 294.073 369.407C293.927 369.875 293.78 366.312 293.723 361.468C293.667 356.624 293.549 338.72 293.407 321.63C293.266 304.54 293.132 279.931 293.072 266.948C293.049 253.925 292.959 237.493 292.935 230.323C292.911 223.153 292.807 211.954 292.757 205.444Z" fill="#0085CB"/>
<path d="M317.309 228.081C317.186 217.851 317.048 204.869 317.015 199.211L316.93 188.942L318.628 188.6C319.555 188.427 324.474 188.218 338.654 187.951L338.768 199.693C338.817 206.126 339.207 245.807 339.604 287.775C340.04 329.782 340.322 365.938 340.249 368.149C340.199 371.522 339.872 372.652 338.33 375.045C337.315 376.654 335.234 379.212 333.792 380.79C331.817 382.842 330.709 383.677 329.856 383.693C329.004 383.709 327.786 382.841 325.415 380.56C323.638 378.849 321.339 376.257 320.301 374.726C318.584 372.162 318.496 371.621 318.517 364.799C318.517 360.846 318.361 341.004 318.197 320.775C317.993 300.508 317.736 275.552 317.691 265.321C317.568 255.091 317.394 238.35 317.309 228.081Z" fill="#0065A5"/>
<path fill-rule="evenodd" clip-rule="evenodd" d="M282.176 189.636L290.659 189.359L290.852 205.131C290.945 213.811 291.229 248.068 291.416 281.32C291.601 314.494 291.842 348.558 291.968 356.966C292.13 367.157 292.464 372.344 293.011 372.566C293.676 372.903 293.79 372.784 293.845 371.621C293.831 370.923 293.966 369.913 294.112 369.445C294.258 368.977 294.43 369.827 294.577 371.413C294.685 372.961 294.792 374.432 294.834 374.625C294.877 374.818 294.599 374.474 294.237 373.822C293.637 372.865 293.564 373.099 292.971 376.482C292.585 378.543 291.943 381.346 291.543 382.71C291.066 384.076 290.473 385.482 290.169 385.798C289.866 386.114 289.363 386.162 289.086 385.896C288.849 385.668 287.588 382.63 283.985 372.853L283.12 285.197C282.639 236.99 282.219 195.759 282.214 193.55L282.176 189.636ZM292.428 194.559C292.542 194.44 292.7 198.546 292.8 203.66C292.9 208.774 292.906 213.037 292.792 213.156C292.716 213.235 292.52 209.169 292.42 204.055C292.32 198.94 292.314 194.677 292.428 194.559ZM292.549 224.478C292.587 224.439 292.665 224.437 292.704 224.475C292.821 224.512 292.848 227.883 292.921 239.509L292.658 232.034C292.54 227.966 292.473 224.557 292.549 224.478Z" fill="#009EE4"/>
<path d="M292.494 379.824C293.102 377.216 293.558 374.765 293.473 374.379C293.35 374.033 293.421 373.721 293.576 373.719C293.731 373.716 295.238 375.47 296.908 377.609C298.974 380.206 300.714 381.93 302.126 382.782C303.42 383.572 304.824 384.01 305.906 383.835C306.872 383.7 308.638 382.814 309.858 381.784C311.08 380.83 312.152 380.19 312.236 380.498C312.318 380.729 312.74 380.528 313.234 380.015C313.69 379.541 314.494 379.022 314.995 378.896C315.765 378.649 315.844 378.725 315.548 379.428C315.363 379.858 314.945 380.292 314.635 380.298C314.287 380.344 313.787 380.547 313.559 380.784C313.254 381.022 313.38 381.523 313.775 381.904C314.486 382.588 314.524 382.548 314.31 381.506C314.094 380.386 314.172 380.384 314.808 381.225C315.363 381.835 315.372 382.3 314.798 382.659C314.339 382.978 313.807 383.531 313.698 383.882C313.511 384.234 313.682 385.083 314.004 385.698C314.404 386.31 314.599 388.322 314.556 390.106C314.513 391.889 314.336 394.683 314.173 396.275C314.009 397.79 313.766 399.229 313.614 399.387C313.424 399.584 313.366 400.593 313.388 401.678C313.448 402.801 313.612 403.263 313.719 402.757C313.9 402.094 313.976 402.016 314.143 402.632C314.228 403.018 314.158 403.407 313.887 403.451C313.618 403.573 313.442 404.467 313.464 405.552C313.485 406.637 313.347 409.469 313.122 411.838C312.792 414.789 312.941 416.453 313.535 417.101C314.364 417.899 314.327 417.939 313.272 417.532C312.335 417.162 312.259 417.241 312.851 417.812C313.169 418.193 313.254 418.579 312.907 418.702C312.599 418.785 312.582 419.91 312.877 421.106C313.134 422.341 313.272 423.462 313.12 423.62C312.93 423.818 313.09 424.047 313.401 424.119C313.752 424.228 313.913 424.536 313.804 424.886C313.732 425.198 313.079 425.481 312.459 425.493C311.839 425.505 311.145 425.673 310.917 425.91C310.727 426.107 309.607 426.322 308.405 426.306C307.205 426.367 305.543 426.592 303.001 427.416L295.73 406.507C291.707 395.032 288.697 385.826 289.05 386.013C289.325 386.201 289.98 385.995 290.473 385.482C290.929 385.008 291.848 382.472 292.494 379.824Z" fill="#ECD39C"/>
<path d="M313.554 115.596C313.242 115.525 312.908 114.291 312.882 112.973L312.756 110.495L320.429 110.428C324.653 110.387 328.183 110.514 328.266 110.823C328.348 111.054 328.541 111.012 328.767 110.697C328.954 110.345 330.161 110.593 331.452 111.228C333.292 112.162 334.043 112.885 335.281 114.76C336.159 116.062 336.965 117.597 337.094 118.253C337.27 119.335 337.232 119.375 336.521 118.69C336.126 118.31 336.039 117.847 336.387 117.801C336.696 117.718 336.693 117.563 336.343 117.531C335.956 117.538 335.637 117.079 335.59 116.654C335.5 116.061 335.263 115.833 334.879 115.97C334.57 116.053 334.576 116.363 334.891 116.589C335.204 116.739 335.211 117.126 334.906 117.364C334.599 117.525 334.566 117.797 334.917 117.907C335.268 118.016 335.315 118.442 335.129 118.872C334.944 119.302 334.994 119.882 335.271 120.148C335.549 120.492 335.739 120.294 335.722 119.442C335.748 118.783 335.816 118.316 335.935 118.43C336.053 118.544 336.073 119.552 336.056 120.676C336.039 121.8 335.892 122.191 335.802 121.572C335.632 120.8 335.316 120.496 334.97 120.619C334.661 120.702 334.667 121.012 334.982 121.239C335.295 121.388 335.302 121.775 334.997 122.014C334.652 122.214 334.775 122.56 335.362 122.821C335.871 123.082 336.194 123.774 336.132 124.55C336.039 125.754 336.039 125.754 335.9 124.555C335.848 123.897 335.488 123.322 335.178 123.328C334.868 123.334 334.872 123.566 335.149 123.832C335.386 124.061 335.43 124.331 335.161 124.452C334.93 124.534 334.936 124.844 335.176 125.227C335.454 125.571 335.852 126.106 336.091 126.411C336.29 126.679 336.299 127.144 336.033 127.42C335.691 127.776 335.535 127.701 335.482 126.966C335.471 126.423 335.269 126.001 335.076 126.043C334.844 126.047 334.894 126.628 335.141 127.398C335.388 128.091 335.795 129.091 336.076 129.59C336.439 130.32 336.327 130.515 335.476 130.609C334.509 130.744 334.511 130.821 335.57 131.46C336.668 132.137 336.67 132.214 335.547 132.274C334.889 132.325 334.543 132.448 334.818 132.637C335.093 132.826 335.644 133.28 336.755 134.577L335.585 134.212C334.649 133.919 334.651 133.997 335.79 134.789C337.088 135.734 337.088 135.734 335.767 135.603C334.447 135.473 334.447 135.473 335.623 136.149C336.72 136.748 336.722 136.826 335.676 136.884C334.631 136.943 334.632 137.02 335.691 137.659C336.75 138.298 336.752 138.375 335.825 138.548C335.245 138.598 334.784 138.839 334.906 139.108C334.988 139.339 335.463 139.873 335.936 140.251C336.646 140.858 336.614 141.207 335.811 141.804C335.123 142.282 335.052 142.593 335.559 142.778C335.948 142.848 331.069 143.095 313.014 143.435L313.034 140.489C313.002 138.862 313.28 137.229 313.584 136.913C313.888 136.597 313.956 136.131 313.759 135.941C313.561 135.751 313.633 135.439 313.941 135.356C314.249 135.273 314.322 135.039 314.088 134.966C313.892 134.853 313.678 133.811 313.655 132.648C313.671 131.446 313.885 130.512 314.196 130.584C314.468 130.617 314.427 130.502 314.114 130.353C313.801 130.204 313.579 128.774 313.549 127.224C313.557 125.635 313.763 124.313 314.113 124.345C314.385 124.379 314.306 124.303 313.994 124.231C313.645 124.199 313.393 123.196 313.409 122.072C313.426 120.947 313.716 119.934 313.946 119.775C314.215 119.653 314.212 119.498 313.862 119.466C313.514 119.512 313.195 119.053 313.148 118.627C313.099 118.124 313.283 117.617 313.592 117.533C313.9 117.45 313.894 117.14 313.581 116.991C313.266 116.764 313.259 116.377 313.566 116.216C313.871 115.978 313.865 115.668 313.554 115.596Z" fill="#A26459"/>
<path d="M305.006 428.889C304.892 429.008 304.734 428.855 304.651 428.547L304.611 428.509C304.528 428.2 304.52 427.813 304.634 427.695C304.786 427.537 304.906 427.728 304.95 427.999C304.956 428.309 305.815 428.603 306.822 428.584C308.103 428.676 308.22 428.712 307.214 428.809C306.053 428.908 305.786 429.107 305.801 429.882C305.813 430.502 306.104 430.858 306.675 430.951C307.257 430.978 307.494 431.207 307.346 431.597C307.275 431.908 307.004 431.952 306.804 431.607C306.565 431.302 306.179 431.386 305.955 431.778C305.654 432.249 305.452 431.852 305.35 430.588C305.291 429.543 305.12 428.771 305.006 428.889Z" fill="#A26459"/>
<path d="M298.99 153.661C298.876 153.779 295.855 153.913 292.213 153.982C288.571 154.051 285.779 153.948 285.931 153.79C286.083 153.633 289.141 153.459 292.707 153.469C296.273 153.479 299.104 153.542 298.99 153.661Z" fill="#5D7B8E"/>
<path d="M323.339 144.171C323.491 144.013 323.254 143.785 322.903 143.675L322.863 143.637C322.474 143.567 325.3 143.397 329.135 143.286C332.97 143.175 336.191 143.386 336.276 143.772C336.361 144.158 336.477 144.117 336.583 143.611C336.653 143.222 336.997 142.945 337.348 143.054C337.699 143.164 337.787 143.705 337.682 144.288C337.5 144.873 337.544 145.143 337.734 144.946C337.923 144.749 338.051 145.328 337.794 148.046L335.702 148.085C334.54 148.107 333.528 147.893 333.443 147.507C333.32 147.161 333.282 147.2 333.25 147.55C333.257 147.937 333.897 148.933 334.728 149.809C335.561 150.762 336.463 151.326 336.887 151.202C337.466 151.075 337.386 150.921 336.682 150.625C336.135 150.402 335.775 149.828 335.801 149.168C335.938 148.236 336.015 148.234 336.694 149.268C337.133 149.918 337.496 150.648 337.579 150.879C337.662 151.188 337.202 151.429 336.621 151.478C336.042 151.606 335.263 151.388 334.947 151.084C334.471 150.55 334.433 150.59 334.605 151.439C334.812 152.094 335.321 152.356 336.6 152.37C337.53 152.353 338.229 152.417 338.115 152.536C338.001 152.654 336.491 152.721 334.746 152.715C333.002 152.709 332.302 152.568 333.268 152.433C334.196 152.338 334.503 152.177 333.921 152.15C333.377 152.082 332.868 151.821 332.861 151.433C332.855 151.123 332.587 151.322 332.248 151.832C331.835 152.499 330.718 152.869 325.566 153.005L326.078 151.445C326.371 150.586 326.388 149.462 326.107 148.964C325.865 148.503 325.818 148.078 326.087 147.956C326.318 147.874 325.721 147.072 324.773 146.159C323.825 145.247 323.149 144.368 323.339 144.171Z" fill="#5D7B8E"/>
<path d="M325.253 158.786L325.207 156.461L325.122 154.098L331.749 154.012C338.025 153.894 338.337 153.965 338.401 155.243C338.416 156.018 338.665 156.866 338.902 157.094C339.178 157.36 339.305 157.862 339.233 158.173C339.162 158.485 338.85 158.413 338.648 157.991C338.446 157.568 337.779 157.154 337.273 157.047C336.767 156.941 336.19 157.145 336.118 157.457C336.047 157.768 335.855 157.888 335.658 157.698C335.538 157.507 335.261 157.24 334.986 157.052C334.711 156.863 334.64 157.175 334.766 157.676C334.973 158.331 335.482 158.593 336.761 158.607C337.691 158.59 338.39 158.654 338.276 158.773C338.162 158.891 336.846 158.993 335.295 158.945C333.783 158.935 332.967 158.834 333.508 158.746C334.281 158.654 334.394 158.458 333.999 158.078C333.722 157.812 333.298 157.936 333.034 158.29C332.809 158.682 330.026 159.044 326.731 159.068C323.515 159.09 321.886 159.043 325.253 158.786Z" fill="#5D7B8E"/>
<path d="M325.302 163.242C325.031 163.286 324.79 162.825 324.701 162.284C324.651 161.704 324.641 161.161 324.679 161.122C324.755 161.043 325.525 160.796 326.49 160.584C327.455 160.372 330.396 160.161 333.069 160.072C336.052 159.977 338.072 160.249 338.314 160.71C338.555 161.17 338.37 161.6 337.986 161.763C337.562 161.887 337.525 162.004 337.913 161.997C338.262 162.029 338.549 162.837 338.607 163.805C338.587 164.774 338.294 165.633 337.946 165.678C337.598 165.723 337.562 165.84 337.911 165.872C338.3 165.943 338.622 166.557 338.638 167.332C338.691 168.067 338.393 168.693 338.083 168.699C337.735 168.744 337.778 168.937 338.17 169.162C338.563 169.465 338.609 169.813 338.303 170.051C338.036 170.25 337.926 170.601 338.124 170.791C338.361 171.019 338.718 171.438 338.919 171.784C339.157 172.089 338.975 172.674 338.557 173.108C338.139 173.542 337.841 174.168 337.926 174.554C337.987 175.018 337.86 175.098 337.544 174.794C337.267 174.528 336.959 174.611 336.848 174.884C336.778 175.273 337.094 175.578 337.832 175.68C338.493 175.784 337.759 175.914 336.172 175.982C334.661 176.05 333.377 175.803 333.292 175.417C333.247 175.069 333.131 175.11 333.06 175.421C332.99 175.81 330.129 176.174 326.564 176.241C320.25 176.399 320.172 176.4 319.987 174.853C319.893 174.003 319.953 173.149 320.105 172.991C320.295 172.793 320.503 173.526 320.602 174.609C320.702 175.77 320.863 176.077 320.967 175.416C321.07 174.756 321.33 174.169 321.561 174.087C321.83 173.966 321.432 173.431 319.306 171.766L323.685 171.722L323.676 169.28C323.688 167.923 323.975 166.755 324.282 166.594C324.591 166.511 324.624 166.239 324.271 166.052C323.957 165.825 323.989 165.476 324.256 165.277C324.562 165.039 324.671 164.688 324.434 164.46C324.237 164.27 324.461 163.878 324.922 163.637C325.42 163.356 325.61 163.159 325.302 163.242Z" fill="#5D7B8E"/>
<path d="M333.961 181.838C333.888 182.072 330.366 182.332 326.064 182.374C321.763 182.417 318.777 182.357 319.396 182.268C320.283 182.057 320.473 181.86 320.154 181.401C319.912 180.94 320.218 180.702 321.301 180.604C322.152 180.51 322.88 180.07 322.988 179.642C323.132 179.122 323.262 179.12 323.375 179.634C323.5 180.058 323.969 180.282 324.355 180.197C324.817 180.034 324.853 179.917 324.464 179.846C324.115 179.814 323.755 179.24 323.626 178.583C323.449 177.501 324.183 177.371 331.119 177.279C335.381 177.199 338.679 177.331 338.527 177.488C338.337 177.686 338.233 178.347 338.245 178.967C338.343 179.972 338.151 180.092 336.875 180.233C336.062 180.287 335.401 180.183 335.359 179.99C335.356 179.835 335.085 179.879 334.819 180.155C334.439 180.55 334.675 180.7 335.644 180.721C336.549 180.73 336.836 180.905 336.507 181.247C336.279 181.484 336.285 181.794 336.597 181.866C336.948 181.975 337.256 181.892 337.29 181.62C337.401 181.347 337.869 181.493 338.381 181.91C338.931 182.287 339.207 182.553 339.013 182.518C338.896 182.481 337.808 182.347 336.644 182.291C335.48 182.236 334.973 182.051 335.474 181.926C336.244 181.679 336.205 181.641 335.195 181.505C334.611 181.399 334.032 181.527 333.961 181.838Z" fill="#5D7B8E"/>
<path d="M323.705 186.566C323.507 186.376 323.263 185.76 323.212 185.18C323.164 184.677 323.27 184.171 323.463 184.129C323.656 184.086 323.898 184.547 323.948 185.127C324.077 185.784 324.316 186.089 324.662 185.967C324.97 185.883 325.083 185.687 324.887 185.575C324.691 185.462 324.37 184.926 324.089 184.427C323.846 183.889 323.914 183.423 324.221 183.262C324.53 183.178 324.92 183.326 325.004 183.635C325.127 183.981 325.671 184.048 326.171 183.845C326.709 183.603 329.65 183.392 332.75 183.334C335.849 183.275 338.486 183.303 338.565 183.379C338.683 183.493 338.493 183.69 338.185 183.774C337.878 183.935 337.765 184.131 337.923 184.283C338.043 184.474 338.294 185.4 338.618 188.068L332.031 188.192C328.467 188.259 325.361 188.008 325.198 187.623C325.036 187.239 324.764 187.205 324.575 187.48C324.349 187.794 323.886 187.88 323.416 187.657C322.869 187.434 322.853 187.267 323.367 187.154C323.791 187.03 323.942 186.794 323.705 186.566Z" fill="#5D7B8E"/>
<path d="M307.017 428.619C306.085 428.559 304.993 428.192 304.598 427.812C304.124 427.356 304.157 427.084 304.698 426.996C305.161 426.91 305.669 427.094 305.753 427.402C305.876 427.749 306.499 427.892 307.117 427.803C308.159 427.59 308.197 427.55 307.033 427.494C306.334 427.43 305.904 427.244 306.132 427.008C306.322 426.81 306.976 426.527 307.477 426.401C308.287 426.192 308.405 426.306 308.544 427.427C308.683 428.626 308.683 428.626 308.857 427.576C309.031 426.604 309.259 426.367 310.189 426.35C310.849 426.376 311.541 426.13 311.769 425.894C311.997 425.657 312.198 426.002 312.172 426.661C312.224 427.319 312.043 427.981 311.815 428.218C311.587 428.455 311.631 428.726 311.903 428.759C312.137 428.832 312.362 430.417 312.359 432.239C312.318 434.1 312.233 435.691 312.119 435.809C312.005 435.928 311.649 435.586 311.329 435.049C311.008 434.512 310.695 434.363 310.546 434.676C310.437 435.027 310.639 435.45 310.991 435.637C311.306 435.863 312.008 436.083 312.514 436.189C313.214 436.331 313.255 436.447 312.716 436.612C312.292 436.736 312.181 437.01 312.458 437.276C312.734 437.542 312.947 438.507 312.965 439.437C312.906 440.368 312.616 441.381 312.233 441.621C311.851 441.938 311.902 442.519 312.418 443.168C312.894 443.701 313.372 444.39 313.456 444.699C313.579 445.045 313.392 445.397 313.084 445.481C312.777 445.642 312.783 445.952 313.099 446.256C313.454 446.598 313.587 447.409 313.445 448.11C313.304 448.81 313.432 449.389 313.742 449.383C314.129 449.376 314.058 449.687 313.678 450.082C313.336 450.437 313.267 450.904 313.582 451.13C313.934 451.317 313.903 451.667 313.597 451.905C313.33 452.104 313.22 452.455 313.418 452.645C313.655 452.873 313.544 453.146 313.236 453.23C312.929 453.39 313.011 453.621 313.441 453.807C313.91 454.031 314.152 454.491 314.041 454.765C313.931 455.116 314.132 455.461 314.444 455.532C314.794 455.642 314.684 455.915 314.068 456.16C313.337 456.445 313.34 456.6 314.118 456.74C314.779 456.844 314.858 456.92 314.281 457.125C313.857 457.249 313.67 457.601 313.871 457.946C314.085 458.356 313.983 458.383 313.562 458.03C313.246 457.725 312.6 456.42 312.149 455.149C311.698 453.879 310.958 451.722 310.505 450.374C310.013 448.988 309.913 447.827 310.262 447.859C310.61 447.814 310.49 447.623 309.981 447.361C309.472 447.099 309.194 446.756 309.422 446.519C309.612 446.321 309.568 446.051 309.217 445.941C308.905 445.87 308.785 445.678 308.937 445.52C309.127 445.323 308.995 444.511 308.667 443.587C308.378 442.701 307.974 441.856 307.778 441.744C307.582 441.631 307.734 441.473 308.158 441.349C308.697 441.184 308.617 441.03 307.953 440.771C307.289 440.513 307.208 440.359 307.747 440.194C308.287 440.029 308.206 439.875 307.542 439.616C306.995 439.394 306.719 439.128 306.871 438.97C307.061 438.773 307.006 437.96 306.757 437.112C306.508 436.264 306.609 435.525 306.995 435.441C307.304 435.357 307.03 435.246 306.292 435.144C305.166 435.049 305.127 435.011 305.936 434.802C306.631 434.634 306.667 434.517 305.886 434.221C305.222 433.963 305.142 433.809 305.681 433.644C306.22 433.479 306.14 433.325 305.476 433.066C304.695 432.771 304.69 432.538 305.493 431.942C306.066 431.505 306.684 431.416 306.845 431.723C307.044 431.99 307.352 431.907 307.422 431.518C307.644 430.971 307.486 430.819 306.789 430.832C306.053 430.885 305.856 430.695 305.841 429.92C305.786 429.107 306.053 428.908 308.685 428.704L307.017 428.619Z" fill="#5D7B8E"/>
<path d="M316.708 144.025C316.521 144.377 315.941 144.427 315.43 144.087C314.723 143.636 315.223 143.432 317.626 143.387C319.33 143.355 321.541 143.43 322.551 143.566C323.563 143.779 324.072 144.041 323.726 144.164C323.304 144.365 323.352 144.868 323.79 145.441C324.227 146.015 324.823 146.74 325.063 147.123C325.303 147.506 325.783 148.272 326.066 148.848C326.386 149.385 326.447 150.508 326.192 151.326C325.715 152.692 325.406 152.775 315.065 153.164L313.812 148.536L315.942 148.458C317.259 148.433 317.837 148.228 317.405 147.965C317.013 147.74 316.966 147.314 317.311 147.114C317.692 146.797 317.533 146.567 316.478 146.161C315.735 145.826 315.032 145.529 314.913 145.415C314.795 145.301 315.181 145.216 315.761 145.166C316.302 145.079 316.81 145.263 316.931 145.532C317.013 145.763 317.402 145.833 317.826 145.709C318.173 145.586 318.247 145.43 317.898 145.398C317.51 145.405 317.229 144.906 317.179 144.326C317.164 143.551 317.047 143.514 316.708 144.025Z" fill="#7993A2"/>
<path d="M315.585 157.921C315.88 157.141 315.904 156.404 315.67 156.331L315.631 156.293C315.397 156.22 315.582 155.79 316.038 155.316C316.532 154.803 317.414 154.36 317.993 154.233C318.689 154.142 319.236 154.364 319.361 154.788C319.487 155.29 319.604 155.326 319.674 154.937C319.744 154.549 320.9 154.217 322.333 154.151C323.727 154.125 324.973 154.411 325.096 154.758C325.259 155.142 325.113 155.61 324.805 155.693C324.496 155.777 324.464 156.126 324.701 156.354C325.016 156.581 325.223 157.236 325.233 157.778C325.209 158.515 324.168 158.806 315.073 159.481L315.585 157.921Z" fill="#7993A2"/>
<path d="M316.231 163.18C316.462 163.099 316.497 162.904 316.26 162.676C316.023 162.448 315.941 162.217 316.016 162.138C316.13 162.02 316.604 162.476 317.083 163.164C317.639 163.852 317.993 164.116 317.987 163.806C317.98 163.419 317.815 162.957 317.694 162.688C317.534 162.458 317.256 162.115 317.019 161.887C316.782 161.658 317.357 161.299 318.28 160.971C319.166 160.683 321.488 160.485 323.465 160.486C325.402 160.449 326.49 160.584 325.911 160.711C324.946 160.923 324.721 161.315 324.557 162.83C324.423 163.917 324.016 164.894 323.63 164.979C323.13 165.182 323.212 165.413 323.879 165.827C324.533 166.202 324.642 166.484 324.206 166.673C323.822 166.836 323.449 167.618 323.427 168.432C323.366 169.286 323.541 170.291 323.705 170.753C324.027 171.367 323.604 171.568 321.669 171.682C320.313 171.747 319.621 171.992 320.05 172.178C320.52 172.402 320.847 173.248 320.787 176.156L318.273 176.397C316.454 176.548 315.754 176.406 315.624 175.75C315.577 175.324 315.258 174.865 314.91 174.91C314.561 174.878 314.634 174.644 315.017 174.405C315.4 174.165 315.43 173.738 315.152 173.394C314.836 173.09 314.786 172.51 315.011 172.118C315.346 171.453 315.386 171.491 315.248 172.346C315.157 173.02 315.277 173.185 315.606 172.843C315.834 172.606 315.939 172.023 315.814 171.599C315.688 171.097 315.919 171.016 316.662 171.35C317.562 171.76 317.559 171.605 316.609 170.615C316.013 169.89 315.381 169.282 315.146 169.131C314.988 168.979 315.099 168.706 315.404 168.467C315.711 168.306 315.703 167.919 315.389 167.692C315.076 167.543 315.068 167.156 315.374 166.917C315.681 166.757 315.752 166.445 315.477 166.257C315.202 166.068 315.346 165.523 315.763 165.011C316.367 164.224 316.484 164.261 316.305 165.001C316.189 165.649 316.295 165.802 316.624 165.46C316.852 165.223 317.203 165.333 317.326 165.679C317.531 166.257 317.378 166.337 316.715 166.156C316.053 165.974 315.899 166.055 316.065 166.594C316.228 166.979 316.541 167.128 316.731 166.931C316.921 166.733 317.234 166.882 317.357 167.229C317.562 167.806 317.408 167.887 316.746 167.705C316.083 167.524 315.93 167.605 316.095 168.144C316.258 168.529 316.571 168.678 316.761 168.48C316.951 168.283 317.264 168.432 317.349 168.818C317.512 169.203 317.653 168.502 317.627 167.185C317.6 165.79 317.226 164.518 316.714 164.102C316.202 163.685 315.962 163.302 316.231 163.18Z" fill="#7993A2"/>
<path d="M335.029 149.338C334.6 149.23 333.897 148.933 333.543 148.668C333.189 148.404 334.076 148.193 335.549 148.166C337.059 148.098 338.419 148.266 338.656 148.495C338.893 148.723 338.584 148.806 338.078 148.699C337.261 148.521 337.224 148.638 337.817 149.208C338.173 149.55 338.299 150.052 338.109 150.249C337.919 150.446 338.048 151.103 338.408 151.677C338.846 152.251 339.048 152.673 338.853 152.638C338.659 152.603 336.99 152.518 335.169 152.514C333.307 152.471 332.023 152.224 332.289 151.948C332.593 151.632 332.864 151.588 332.946 151.819C333.067 152.088 333.534 152.157 334.075 152.069C334.769 151.901 334.919 151.666 334.717 151.243C334.476 150.808 334.566 150.768 334.986 151.122C335.302 151.426 336.044 151.683 336.547 151.635C337.322 151.62 337.55 151.384 337.534 150.609C337.563 150.104 337.199 149.297 336.764 148.879C336.33 148.461 335.98 148.429 335.986 148.739C336.032 149.087 336.235 149.587 336.472 149.815C336.67 150.005 336.718 150.508 336.57 150.821C336.343 151.135 336.036 151.296 335.799 151.068C335.562 150.84 335.515 150.414 335.587 150.103C335.658 149.791 335.418 149.408 335.029 149.338Z" fill="#7993A2"/>
<path d="M338.803 157.988C338.809 158.298 337.458 158.594 335.754 158.627C334.049 158.659 332.92 158.409 333.186 158.132C333.49 157.817 333.76 157.773 333.842 158.004C333.964 158.273 334.275 158.344 334.584 158.261C334.892 158.178 335.003 157.904 334.766 157.676C334.529 157.448 334.64 157.175 334.948 157.091C335.257 157.008 335.608 157.118 335.731 157.464C335.854 157.811 336.086 157.806 336.275 157.531C336.424 157.219 337.08 157.09 337.664 157.195C338.285 157.261 338.797 157.678 338.803 157.988Z" fill="#7993A2"/>
<path d="M316.05 179.656C315.808 179.196 315.527 178.697 315.524 178.542C315.483 178.427 315.869 178.342 316.334 178.333C316.761 178.364 317.22 178.045 317.212 177.658C317.282 177.269 317.36 177.267 317.407 177.693C317.492 178.079 318.036 178.146 318.729 177.9C319.421 177.655 321.24 177.504 322.793 177.63C324.423 177.754 325.399 178.085 325.095 178.401C324.829 178.677 324.559 178.721 324.437 178.452C324.355 178.221 324.044 178.149 323.735 178.232C323.427 178.316 323.357 178.705 323.594 178.933C323.832 179.238 324.188 179.58 324.384 179.693C324.581 179.883 324.469 180.079 324.16 180.162C323.852 180.246 323.46 180.02 323.335 179.596C323.222 179.082 323.093 179.084 322.948 179.604C322.88 180.07 322.15 180.433 321.337 180.487C320.564 180.579 319.911 180.863 319.879 181.212C319.885 181.522 320.471 181.782 321.17 181.847C321.869 181.911 320.749 182.126 318.622 182.36C316.533 182.554 314.637 182.706 314.363 182.595C314.129 182.522 314.005 182.098 314.034 181.593C314.061 181.012 314.559 180.731 315.644 180.71C316.536 180.732 317.461 180.482 317.688 180.168C317.916 179.931 317.91 179.621 317.559 179.512C317.208 179.402 316.863 179.602 316.791 179.914C316.72 180.225 316.369 180.115 316.05 179.656Z" fill="#7993A2"/>
<path d="M315.793 186.328C316.061 186.129 316.054 185.819 315.702 185.632C315.349 185.445 316.193 184.964 317.54 184.512C318.926 184.021 320.973 183.633 322.137 183.689L322.143 183.689C324.191 183.689 324.268 183.689 324.218 185.084C324.194 185.82 324.045 186.133 323.96 185.747C323.797 185.363 323.484 185.214 323.294 185.411C323.104 185.608 323.191 186.072 323.507 186.376C323.863 186.718 323.791 187.03 323.367 187.154C322.853 187.267 322.869 187.435 323.416 187.657C323.846 187.842 324.387 187.755 324.575 187.48C324.724 187.167 324.998 187.278 325.122 187.702C325.286 188.164 324.322 188.376 322.228 188.338C320.288 188.22 319.002 187.895 318.877 187.471C318.738 186.931 318.609 186.933 318.49 187.478C318.42 187.867 318.116 188.183 317.844 188.149C317.571 188.038 316.867 187.741 316.279 187.404C315.547 186.952 315.385 186.594 315.793 186.328Z" fill="#7993A2"/>
<path d="M334.932 172.053C334.821 172.326 334.549 172.292 334.272 172.026C333.956 171.722 334.687 171.437 336.044 171.45C337.322 171.387 338.324 171.136 338.318 170.826C338.311 170.439 338.584 170.55 338.864 170.971C339.181 171.352 339.469 172.161 339.479 172.703C339.49 173.246 339.379 173.519 339.142 173.291C338.943 173.023 338.756 173.376 338.651 173.959C338.624 174.541 338.829 175.119 339.18 175.228C339.531 175.338 339.727 175.45 339.689 175.49C339.613 175.569 338.335 175.632 336.784 175.583C335.272 175.573 334.494 175.433 335.15 175.304C335.769 175.215 336.228 174.896 336.068 174.667C335.986 174.436 336.105 174.55 336.266 174.857C336.504 175.162 336.972 175.309 337.317 175.108C337.624 174.947 338.002 174.475 338.074 174.164C338.144 173.775 337.822 173.161 337.387 172.743C336.914 172.364 336.17 171.952 335.819 171.842C335.39 171.734 335.005 171.819 334.932 172.053Z" fill="#7993A2"/>
<path d="M336.582 181.091C336.772 180.894 336.225 180.671 335.333 180.649C334.401 180.589 334.748 180.467 336.065 180.442C337.42 180.378 338.627 180.626 338.75 180.973C338.95 181.318 338.843 181.746 338.534 181.829C338.226 181.913 337.834 181.688 337.709 181.264C337.622 180.8 337.505 180.764 337.436 181.152C337.366 181.541 336.44 181.791 335.316 181.774C334.192 181.756 333.958 181.683 334.731 181.591C335.544 181.537 336.392 181.288 336.582 181.091Z" fill="#7993A2"/>
<path d="M315.065 376.53C316.774 374.754 318.177 373.138 318.172 372.906C318.13 372.713 318.204 372.556 318.282 372.555C318.437 372.552 319.629 374.08 320.945 375.954C322.299 377.789 324.285 380.232 325.351 381.259C326.736 382.667 326.938 383.089 326.195 382.754C325.57 382.534 324.9 381.965 324.66 381.582C324.379 381.083 324.343 381.2 324.551 381.933C324.762 382.82 324.611 383.056 323.685 383.228C322.72 383.44 322.682 383.48 323.574 383.501C324.156 383.529 324.978 383.94 325.374 384.398C326.046 385.044 326.047 385.121 325.227 384.788C324.68 384.566 325.474 385.559 326.898 387.005C328.36 388.411 329.712 390.169 329.958 390.862C330.206 391.632 330.256 392.213 330.024 392.217C329.791 392.221 329.612 392.961 329.546 395.559L328.372 394.961C327.744 394.585 326.801 393.906 326.21 393.413C325.657 392.881 324.678 392.395 324.017 392.291C322.969 392.195 322.97 392.272 324.04 393.454C325.029 394.482 325.186 394.556 324.82 393.672C324.521 392.928 324.569 392.746 324.964 393.126C325.318 393.391 325.722 394.236 325.815 395.009C325.945 395.743 326.345 396.356 326.734 396.426C327.084 396.458 326.854 396.618 326.236 396.707C325.193 396.92 325.198 397.153 326.312 398.605C326.989 399.561 327.916 401.365 328.367 402.635C328.781 403.945 329.306 405.06 329.502 405.172C329.738 405.323 329.663 405.479 329.317 405.602C329.009 405.685 328.898 405.959 329.135 406.187C329.372 406.415 329.299 406.649 328.952 406.772C328.644 406.855 328.536 407.283 328.697 407.59C328.898 407.935 328.226 407.289 327.273 406.144C326.082 404.694 325.256 404.051 324.637 404.14C324.07 404.202 323.843 404.465 323.955 404.928C324.078 405.274 323.818 405.861 323.397 406.14C322.939 406.459 322.638 406.929 322.761 407.276C322.884 407.622 322.773 407.896 322.542 407.978C322.273 408.099 322.705 408.362 323.369 408.621C324.267 408.953 324.613 408.83 324.639 408.171C324.627 407.551 324.469 407.399 323.972 407.757C323.628 408.035 323.279 408.003 323.156 407.656C323.033 407.31 323.376 407.032 324.071 406.864C325.037 406.729 325.075 406.69 324.295 406.472C323.75 406.327 323.669 406.174 324.017 406.128C324.405 406.121 324.707 405.728 324.7 405.34C324.69 404.875 324.921 404.793 325.237 405.098C325.514 405.364 325.596 405.595 325.403 405.637C325.21 405.679 325.073 406.612 325.096 407.775C325.158 408.975 325.371 409.94 325.605 410.013C325.917 410.085 326.044 410.664 325.939 411.247C325.806 412.335 325.728 412.336 325.552 411.254C325.383 410.56 325.105 410.216 324.759 410.339C324.45 410.422 324.384 410.966 324.587 411.466C324.868 411.965 325.151 412.541 325.309 412.693C325.429 412.884 325.556 413.463 325.605 413.966C325.66 414.779 325.468 414.899 324.724 414.487C324.254 414.263 323.777 413.652 323.691 413.188C323.682 412.724 323.282 412.111 322.849 411.77C322.455 411.468 321.869 411.207 321.481 411.215C321.171 411.221 321.45 411.564 322.156 412.016C323.296 412.808 323.299 412.963 322.419 413.561C321.538 414.082 321.503 414.276 322.24 414.301C322.744 414.33 323.68 414.623 324.306 414.921C324.973 415.335 325.212 415.64 324.865 415.763C324.557 415.847 324.412 416.392 324.501 416.933C324.627 417.434 324.482 417.98 324.136 418.102C323.827 418.186 323.759 418.652 323.961 419.075C324.163 419.497 324.133 419.924 323.786 420.047C323.478 420.13 323.291 420.483 323.414 420.829C323.537 421.176 323.045 421.766 322.357 422.244C321.591 422.724 320.707 423.089 320.321 423.174C319.933 423.182 319.281 423.543 318.939 423.898C318.56 424.293 317.786 424.385 317.16 424.086C316.379 423.791 315.878 423.917 315.618 424.503C315.357 425.012 315.053 425.328 314.857 425.215C314.659 425.025 314.149 424.686 313.679 424.462C313.208 424.161 312.93 423.817 313.12 423.62C313.272 423.462 313.134 422.341 312.877 421.105C312.582 419.909 312.599 418.785 312.907 418.702C313.254 418.579 313.169 418.193 312.851 417.811C312.259 417.241 312.335 417.162 313.272 417.532C314.327 417.938 314.365 417.899 313.535 417.101C312.941 416.453 312.792 414.789 313.122 411.837C313.347 409.469 313.485 406.637 313.464 405.552C313.442 404.467 313.619 403.572 313.887 403.451C314.158 403.407 314.228 403.018 314.143 402.632C313.976 402.015 313.9 402.094 313.719 402.757C313.612 403.262 313.448 402.8 313.388 401.678C313.366 400.593 313.424 399.584 313.614 399.386C313.766 399.229 314.009 397.79 314.173 396.275C314.336 394.683 314.513 391.889 314.556 390.105C314.599 388.322 314.328 386.389 313.968 385.814C313.53 385.241 313.476 384.428 313.856 384.033C314.158 383.64 314.726 382.971 315.029 382.577C315.396 382.119 315.359 381.559 314.203 380.416C314.177 380.426 314.151 380.436 314.125 380.447L314.389 381.582C314.562 382.509 314.453 382.859 313.945 382.675C313.517 382.567 313.056 382.808 313.026 383.235C312.881 383.755 312.752 383.757 312.639 383.242C312.471 382.626 312.623 382.468 313.55 382.295C314.477 382.123 314.513 382.006 313.732 381.71C313.029 381.413 312.947 381.182 313.406 380.864C313.605 380.703 313.87 380.553 314.125 380.447L314.093 380.308C314.131 380.345 314.167 380.381 314.203 380.416C314.36 380.356 314.51 380.314 314.635 380.298C314.945 380.292 315.363 379.858 315.548 379.428C315.844 378.725 315.765 378.649 314.995 378.896C314.494 379.022 313.69 379.541 313.234 380.014C312.74 380.527 312.278 380.691 312.155 380.345C312.032 379.998 313.356 378.307 315.065 376.53Z" fill="#D0BB7D"/>
<path d="M281.904 144.138L281.787 134.218C281.679 128.716 281.783 124.102 281.973 123.905C282.163 123.707 282.547 123.545 282.857 123.539C283.206 123.571 283.522 123.875 283.568 124.223C283.691 124.57 283.895 125.07 284.092 125.26C284.291 125.528 284.22 125.839 283.914 126.077C283.569 126.278 283.38 126.475 283.459 126.551C283.46 126.628 284.08 126.617 284.738 126.566C285.783 126.507 285.859 126.428 285.232 126.052C284.762 125.829 284.755 125.441 285.215 125.2C285.827 124.801 285.748 124.725 284.701 124.706C283.81 124.684 283.612 124.494 283.993 124.177C284.221 123.94 284.8 123.813 285.191 123.96C285.58 124.03 285.906 124.877 285.923 125.729C285.912 127.164 285.76 127.321 284.677 127.419C283.942 127.472 283.712 127.631 284.18 127.778C284.609 127.886 284.774 128.425 284.67 129.009C284.487 129.593 284.071 130.105 283.761 130.111C283.413 130.156 283.495 130.387 283.887 130.613C284.279 130.838 284.326 131.263 284.059 131.462C283.714 131.662 283.72 131.972 284.031 132.044C284.382 132.154 284.727 131.953 284.799 131.642C284.87 131.33 285.1 131.171 285.297 131.361C285.455 131.513 285.616 133.797 285.669 136.509C285.721 139.144 285.65 141.432 285.498 141.59C285.308 141.787 284.913 141.407 284.63 140.831C284.308 140.217 284.031 139.951 284.037 140.261C284.004 140.533 284.126 140.802 284.281 140.799C284.398 140.835 284.568 141.607 284.663 142.536C284.72 143.426 284.884 143.888 284.955 143.577C284.987 143.227 285.8 143.173 286.619 143.429C287.945 143.869 287.714 143.951 281.904 144.138Z" fill="#CA8277"/>
<path d="M305.83 113.106C304.085 113.023 303.811 112.912 303.989 112.095C304.056 111.551 304.24 111.043 304.354 110.925C304.468 110.807 306.364 110.655 312.756 110.495L312.882 112.973C312.908 114.291 313.242 115.525 313.554 115.596C313.905 115.706 313.871 115.978 313.604 116.177C313.259 116.377 313.266 116.765 313.619 116.952C313.894 117.14 313.9 117.45 313.592 117.534C313.283 117.617 313.099 118.124 313.148 118.627C313.195 119.053 313.514 119.512 313.862 119.466C314.211 119.499 314.215 119.654 313.946 119.775C313.716 119.934 313.426 120.947 313.409 122.072C313.393 123.196 313.645 124.199 313.994 124.231C314.345 124.341 314.385 124.379 314.113 124.345C313.763 124.313 313.557 125.635 313.587 127.185C313.579 128.774 313.839 130.164 314.114 130.353C314.427 130.502 314.468 130.618 314.196 130.584C313.885 130.512 313.671 131.447 313.693 132.609C313.678 133.811 313.892 134.853 314.126 134.926C314.322 135.039 314.249 135.273 313.941 135.356C313.633 135.439 313.561 135.751 313.759 135.941C313.996 136.169 313.888 136.597 313.584 136.913C313.28 137.229 313.076 138.706 313.105 140.178C313.096 141.69 313.007 143.048 312.855 143.206C312.703 143.364 310.109 143.529 307.047 143.548C304.063 143.565 302.125 143.524 302.82 143.434C303.516 143.343 303.861 143.143 303.624 142.915C303.427 142.725 303.851 142.6 304.665 142.624C305.519 142.685 305.867 142.64 305.478 142.57C305.128 142.537 304.46 142.046 304.024 141.551C303.627 141.093 303.463 140.631 303.732 140.51C303.963 140.428 303.957 140.118 303.72 139.89C303.481 139.584 303.126 139.242 302.93 139.129C302.732 138.939 302.805 138.705 303.15 138.505C303.456 138.267 303.487 137.917 303.249 137.612C303.012 137.384 302.808 136.884 302.801 136.496C302.833 136.147 302.91 136.145 303.112 136.568C303.197 136.954 303.589 137.179 303.898 137.096C304.206 137.012 304.197 136.547 303.841 136.205C303.484 135.786 303.05 135.368 302.854 135.255C302.656 135.065 302.767 134.791 303.112 134.591C303.38 134.392 303.372 134.005 303.097 133.816C302.744 133.629 302.737 133.242 303.082 133.041C303.349 132.843 303.342 132.455 303.067 132.267C302.714 132.079 302.708 131.769 303.016 131.686C303.325 131.603 303.512 131.25 303.389 130.904C303.305 130.595 303.453 130.205 303.761 130.122C304.069 130.038 304.101 129.689 303.864 129.461C303.55 129.234 303.302 128.464 303.328 127.804C303.348 126.835 303.498 126.6 304.312 126.623C305.049 126.648 305.128 126.724 304.554 127.084C304.171 127.323 304.019 127.481 304.288 127.36C304.48 127.24 304.796 127.544 304.92 127.968C305.043 128.315 305.191 127.924 305.212 127.032C305.27 126.024 304.864 125.101 304.275 124.686C303.685 124.271 303.366 123.811 303.556 123.614C303.708 123.456 304.098 123.604 304.414 123.908C304.73 124.212 305.276 124.357 305.584 124.274C305.969 124.137 305.64 123.82 304.597 123.323C303.553 122.826 303.158 122.446 303.411 122.183C303.601 121.985 304.068 122.054 304.384 122.358C304.7 122.662 305.245 122.807 305.554 122.724C305.939 122.587 305.61 122.271 304.566 121.773C303.523 121.276 303.128 120.896 303.381 120.633C303.571 120.436 304.036 120.427 304.313 120.693C304.588 120.882 304.984 121.339 305.144 121.569C305.343 121.836 305.452 121.485 305.478 120.826C305.504 120.167 305.492 119.547 305.414 119.548C305.335 119.472 305.185 119.708 305.113 120.019C305.042 120.33 304.499 120.341 303.951 120.041C303.402 119.741 303.202 119.396 303.548 119.273C303.857 119.19 303.927 118.801 303.69 118.573C303.451 118.267 303.095 117.925 302.899 117.813C302.702 117.623 302.813 117.349 303.158 117.149C303.425 116.95 303.418 116.563 303.143 116.374C302.711 116.111 302.972 115.602 304.156 114.688C305.034 114.013 306.262 113.37 306.803 113.282C307.383 113.232 306.955 113.124 305.83 113.106Z" fill="#CA8277"/>
<path d="M334.944 117.325C335.211 117.126 335.204 116.739 334.929 116.55C334.576 116.363 334.415 116.056 334.567 115.898C334.719 115.74 335.299 115.69 335.883 115.796C336.623 115.976 336.741 116.09 336.244 116.448C335.9 116.648 335.793 117.154 336.071 117.498C336.311 117.881 336.788 118.492 337.028 118.875C337.269 119.258 337.401 120.069 337.373 120.651C337.307 121.195 337.475 121.89 337.791 122.194C338.03 122.499 338.037 122.887 337.732 123.125C337.387 123.325 337.433 123.673 337.785 123.86C338.06 124.049 338.068 124.436 337.8 124.635C337.455 124.836 337.463 125.223 337.816 125.41C338.091 125.599 338.098 125.986 337.831 126.185C337.486 126.385 337.454 126.735 337.806 126.922C338.121 127.149 338.091 127.575 337.826 127.929C337.522 128.245 337.533 128.788 337.849 129.092C338.165 129.396 338.258 130.169 338.039 130.871C337.781 131.535 337.697 133.203 337.724 134.598C337.753 136.07 337.502 137.121 337.079 137.245C336.539 137.385 336.541 137.514 337.086 137.633C337.515 137.741 337.885 138.858 338.201 143.116L336.608 142.874C335.714 142.775 335.088 142.477 335.122 142.205C335.155 141.933 335.144 141.39 335.137 141.003L335.137 141.003C335.128 140.538 335.245 140.575 335.486 141.035C335.688 141.458 336.079 141.605 336.346 141.406C336.574 141.17 336.371 140.67 335.936 140.251C335.424 139.835 334.988 139.339 334.906 139.108C334.784 138.839 335.245 138.598 335.825 138.548C336.752 138.376 336.75 138.298 335.691 137.659C334.632 137.02 334.631 136.943 335.676 136.884C336.722 136.826 336.72 136.748 335.623 136.149C334.447 135.473 334.447 135.473 335.767 135.604C337.088 135.734 337.088 135.734 335.79 134.789C334.651 133.997 334.649 133.919 336.755 134.577L336.003 133.777C335.644 133.28 335.093 132.826 334.818 132.637C334.543 132.448 334.889 132.326 335.547 132.274C336.67 132.215 336.668 132.137 335.57 131.46C334.511 130.821 334.509 130.744 335.476 130.609C336.326 130.516 336.439 130.32 336.076 129.59C335.795 129.092 335.387 128.092 335.141 127.399C334.894 126.628 334.844 126.048 335.076 126.043C335.269 126.001 335.471 126.423 335.482 126.966C335.535 127.701 335.653 127.815 336.035 127.498C336.301 127.222 336.331 126.795 336.091 126.412C335.852 126.106 335.454 125.571 335.214 125.188C334.936 124.844 334.93 124.534 335.199 124.413C335.43 124.331 335.386 124.061 335.149 123.833C334.872 123.566 334.868 123.334 335.178 123.328C335.526 123.283 335.848 123.897 335.9 124.555C336.039 125.754 336.039 125.754 336.132 124.55C336.194 123.774 335.871 123.083 335.362 122.821C334.775 122.561 334.652 122.214 335.035 121.974C335.302 121.775 335.295 121.388 335.02 121.199C334.667 121.012 334.661 120.702 334.97 120.619C335.316 120.496 335.594 120.84 335.684 121.458C335.773 122.077 335.898 122.501 336.012 122.382C336.126 122.264 336.106 121.256 336.045 120.134C335.985 119.011 335.862 118.664 335.798 119.363C335.738 120.294 335.588 120.53 335.271 120.148C334.994 119.882 334.944 119.302 335.129 118.872C335.315 118.442 335.267 118.017 334.916 117.907C334.565 117.797 334.599 117.525 334.944 117.325Z" fill="#CA8277"/>
<path d="M282.67 153.542C281.357 153.799 281.357 153.799 281.281 151.901C281.222 150.856 281.395 149.806 281.623 149.569C281.851 149.333 282.857 149.236 285.809 149.568L285.647 151.16C285.51 152.093 285.172 152.681 284.821 152.571C284.51 152.499 284.202 152.583 284.129 152.817C284.018 153.09 283.404 153.412 282.67 153.542Z" fill="#9CB8C7"/>
<path d="M281.843 178.596L281.783 175.496C281.685 172.513 281.722 172.396 283.077 172.332C284.24 172.31 284.592 172.497 284.961 173.537C285.288 174.383 285.144 174.929 284.68 175.015C284.141 175.18 284.182 175.296 284.844 175.477C285.662 175.655 285.774 175.46 285.517 174.224C285.385 173.413 285.488 172.752 285.798 172.746C286.108 172.74 286.315 173.395 286.216 174.288C286.156 175.142 285.938 175.922 285.786 176.079C285.596 176.277 285.169 176.246 284.779 176.098C284.428 175.989 283.658 176.236 283.047 176.712C282.475 177.227 282.137 177.737 282.295 177.889C282.492 178.079 283.27 178.22 284.047 178.283C285.133 178.34 285.017 178.381 281.843 178.596Z" fill="#9CB8C7"/>
<path d="M305.846 149.462C305.343 149.51 304.758 149.327 304.638 149.136C304.478 148.906 305.637 148.729 307.148 148.662C308.698 148.633 310.086 148.297 310.234 147.906C310.343 147.555 310.574 147.473 310.697 147.82C310.82 148.166 311.171 148.276 311.48 148.193C311.788 148.109 311.9 147.913 311.742 147.761C311.507 147.611 311.151 147.269 310.952 147.001C310.676 146.735 310.667 146.27 310.857 146.073C311.047 145.875 311.36 146.025 311.445 146.41C311.584 146.95 311.714 146.948 311.832 146.403C311.94 145.975 311.542 145.44 310.914 145.064C309.778 144.426 309.778 144.426 311.176 144.555C311.99 144.579 312.299 144.495 311.948 144.386C311.557 144.238 311.32 144.01 311.51 143.812C311.662 143.655 312.979 143.63 314.493 143.717C316.238 143.801 317.214 144.131 317.223 144.596C317.232 145.061 317.51 145.405 317.898 145.397C318.247 145.43 318.173 145.586 317.826 145.709C317.402 145.833 317.013 145.763 316.931 145.532C316.81 145.263 316.302 145.079 315.761 145.166C315.181 145.216 314.795 145.301 314.913 145.415C315.032 145.529 315.735 145.826 316.478 146.161C317.533 146.567 317.692 146.797 317.272 147.076C316.966 147.314 317.013 147.74 317.405 147.965C317.837 148.228 317.22 148.395 313.812 148.536L314.435 150.656C314.768 151.813 314.982 152.855 314.868 152.974C314.793 153.13 312.818 153.206 310.53 153.133C307.468 153.152 306.222 152.865 305.899 152.174C305.613 151.443 305.496 151.406 305.356 152.184C305.217 152.962 305.139 152.963 304.969 152.191C304.843 151.69 304.676 151.073 304.556 150.881C304.475 150.728 304.35 150.304 304.305 149.956C304.299 149.646 304.378 149.722 304.501 150.068C304.627 150.57 305.131 150.599 305.82 150.121C306.662 149.563 306.698 149.446 305.846 149.462Z" fill="#9CB8C7"/>
<path d="M304.758 159.211C305.452 159.043 305.449 158.888 304.746 158.591C304.199 158.368 303.845 158.104 303.92 158.025C304.034 157.906 305.581 157.722 307.4 157.572C310.264 157.363 310.686 157.161 310.937 156.11C311.15 155.098 310.989 154.791 310.135 154.73C309.591 154.662 310.402 154.531 311.951 154.424C313.499 154.317 315.632 154.393 316.76 154.566C317.847 154.7 318.394 154.923 318.008 155.007C317.585 155.132 317.32 155.486 317.443 155.832C317.566 156.179 317.458 156.607 317.269 156.804C317.079 157.002 316.728 156.892 316.567 156.585C316.366 156.24 316.472 155.734 316.817 155.534C317.2 155.294 317.197 155.139 316.848 155.107C316.5 155.152 315.922 155.357 315.579 155.635C315.196 155.874 315.163 156.146 315.514 156.256C315.865 156.366 315.918 157.101 315.662 157.92C315.147 159.325 314.877 159.369 309.491 159.431C306.391 159.49 304.256 159.336 304.758 159.211Z" fill="#9CB8C7"/>
<path d="M283.059 183.262C282.594 183.271 282.123 182.97 282 182.623C281.875 182.199 281.866 181.735 282.018 181.577C282.17 181.419 283.177 181.4 284.343 181.533C285.431 181.667 286.482 181.919 286.68 182.109C286.838 182.261 286.104 182.391 285.019 182.412C283.934 182.432 283.24 182.6 283.477 182.828C283.74 183.082 283.601 183.226 283.059 183.262Z" fill="#9CB8C7"/>
<path d="M310.908 164.521C311.521 164.122 311.475 163.774 310.688 163.169C309.86 162.448 309.857 162.293 310.895 161.847C311.548 161.563 312.083 161.166 312.118 160.971C312.113 160.739 313.699 160.592 315.637 160.556C317.846 160.553 318.663 160.731 317.893 160.979C317.047 161.305 316.743 161.62 316.98 161.848C317.217 162.076 317.495 162.42 317.654 162.65C317.776 162.919 317.94 163.381 317.948 163.768C317.954 164.078 317.56 163.775 316.965 163.05C316.407 162.286 316.13 162.019 316.292 162.326C316.454 162.711 316.422 163.06 316.191 163.142C315.922 163.264 316.162 163.647 316.674 164.063C317.186 164.48 317.56 165.752 317.588 167.147C317.613 168.464 317.472 169.165 317.349 168.818C317.224 168.394 316.911 168.245 316.722 168.442C316.532 168.64 316.219 168.491 316.096 168.144C315.89 167.566 316.044 167.486 316.706 167.667C317.369 167.849 317.522 167.768 317.357 167.229C317.194 166.844 316.881 166.695 316.691 166.892C316.501 167.09 316.188 166.941 316.065 166.594C315.86 166.017 316.013 165.936 316.676 166.118C317.338 166.299 317.492 166.219 317.326 165.679C317.164 165.294 316.813 165.185 316.585 165.422C316.256 165.764 316.149 165.611 316.266 164.963C316.445 164.223 316.328 164.186 315.723 164.973C315.307 165.485 315.163 166.03 315.438 166.218C315.713 166.407 315.641 166.718 315.374 166.917C315.029 167.118 315.036 167.505 315.389 167.692C315.664 167.881 315.672 168.268 315.404 168.467C315.059 168.667 314.948 168.941 315.106 169.093C315.342 169.243 315.974 169.852 316.57 170.577C317.519 171.567 317.522 171.722 316.623 171.312C315.88 170.977 315.649 171.059 315.814 171.599C315.899 171.985 315.795 172.568 315.567 172.805C315.238 173.147 315.118 172.981 315.208 172.308C315.346 171.453 315.307 171.415 314.971 172.08C314.746 172.472 314.796 173.052 315.112 173.356C315.39 173.7 315.398 174.087 315.093 174.326C314.748 174.526 314.752 174.758 315.103 174.868C315.454 174.978 315.577 175.324 315.506 175.636C315.435 175.947 314.356 176.277 313.117 176.378C311.878 176.402 310.828 176.228 310.743 175.842C310.62 175.495 310.542 175.497 310.55 175.884C310.518 176.233 309.864 176.517 309.167 176.53C308.392 176.545 307.768 176.324 307.686 176.093C307.602 175.785 307.015 175.524 306.432 175.419C305.305 175.246 305.343 175.207 306.541 175.068C307.778 174.89 307.777 174.812 306.956 174.479C306.292 174.22 306.089 173.72 306.268 172.98C306.485 172.201 306.984 171.92 308.456 171.893C309.501 171.834 310.389 171.624 310.5 171.35C310.533 171.078 310.805 171.112 311.119 171.338C311.514 171.719 311.552 171.679 311.309 171.141C311.109 170.796 311.217 170.368 311.525 170.284C311.834 170.201 311.75 169.893 311.32 169.707C310.89 169.521 310.428 169.685 310.358 170.074C310.173 170.504 310.095 170.505 310.05 170.157C310.042 169.77 310.225 169.185 310.489 168.831C310.714 168.439 311.024 168.433 311.188 168.895C311.311 169.242 311.346 169.047 311.294 168.39C311.165 167.733 311.271 167.227 311.464 167.185C311.697 167.18 311.843 166.713 311.753 166.094C311.621 165.283 311.423 165.093 310.884 165.258C310.267 165.424 310.346 165.5 311.047 165.642C311.824 165.783 311.826 165.86 311.054 166.03C310.282 166.199 310.284 166.277 311.062 166.417C311.762 166.559 311.841 166.635 311.264 166.84C310.723 166.927 310.408 166.701 310.279 166.044C310.153 165.543 310.449 164.84 310.908 164.521Z" fill="#9CB8C7"/>
<path d="M314.075 181.709C314.052 182.523 313.203 182.694 309.559 182.685C307.078 182.655 305.564 182.567 306.181 182.4C306.915 182.27 307.259 181.992 307.172 181.529C307.085 181.065 307.971 180.777 309.481 180.71C310.797 180.608 311.996 180.469 312.11 180.351C312.224 180.232 312.177 179.807 312.052 179.383C311.939 178.868 311.81 178.871 311.665 179.39C311.597 179.856 311.288 179.94 310.933 179.598C310.537 179.217 310.609 178.906 311.3 178.583C311.954 178.299 312.028 178.143 311.483 177.998C311.056 177.967 310.743 177.818 310.819 177.739C310.857 177.7 312.677 177.627 314.809 177.625C317.638 177.611 318.495 177.827 317.844 178.266C317.27 178.625 317.162 179.054 317.515 179.241C317.829 179.468 317.876 179.893 317.648 180.13C317.422 180.444 316.497 180.694 315.605 180.672C314.365 180.696 314.059 180.934 314.075 181.709Z" fill="#9CB8C7"/>
<path d="M311.48 187.727C311.163 187.423 310.724 186.772 310.522 186.349C310.32 185.927 310.196 185.503 310.272 185.424C310.348 185.345 310.743 185.725 311.141 186.26C311.54 186.873 311.698 187.025 311.536 186.64C311.413 186.294 311.521 185.865 311.829 185.782C312.175 185.659 312.016 185.43 311.469 185.208C310.689 184.99 310.919 184.83 312.692 184.332C313.848 184 315.82 183.769 316.983 183.747C318.262 183.762 318.925 183.943 318.583 184.298C318.317 184.575 318.048 184.696 318.005 184.503C317.963 184.31 317.267 184.401 316.497 184.648C315.38 185.018 315.19 185.215 315.699 185.477C316.013 185.703 316.021 186.091 315.714 186.252C315.332 186.543 315.494 186.902 316.2 187.328C316.828 187.703 317.531 188 317.765 188.073C318.077 188.145 318.306 187.986 318.417 187.712C318.49 187.478 318.762 187.512 319.078 187.816C319.355 188.082 318.119 188.338 316.299 188.411C314.517 188.445 312.883 188.165 312.721 187.781C312.598 187.434 312.326 187.401 312.254 187.712C312.183 188.023 311.796 188.031 311.48 187.727Z" fill="#9CB8C7"/>
<path d="M323.647 383.268C324.611 383.056 324.724 382.86 324.44 382.206C324.238 381.784 324.113 381.36 324.189 381.281C324.227 381.241 324.777 381.619 325.37 382.189C326.002 382.797 326.705 383.094 326.973 382.895C327.28 382.734 327.552 382.768 327.634 382.999C327.717 383.307 328.536 383.563 329.469 383.701C330.946 383.905 331.482 383.585 333.382 381.611C334.597 380.348 336.416 378.221 339.17 374.41L338.227 377.683C337.719 379.475 337.09 380.999 336.821 381.12C336.591 381.202 336.516 381.359 336.674 381.511C336.872 381.701 336.809 382.477 336.515 383.258C336.259 384.077 335.732 384.862 335.307 384.908C334.729 385.113 334.808 385.189 335.509 385.331C336.287 385.471 336.25 385.588 335.481 385.913C334.981 386.116 334.754 386.353 335.026 386.387C335.299 386.498 335.313 387.195 335.056 387.936C334.801 388.755 334.273 389.54 333.848 389.587C333.386 389.751 333.35 389.868 333.739 389.938C334.128 390.008 334.219 390.704 333.962 391.445C333.707 392.264 333.179 393.049 332.754 393.096C332.292 393.26 332.256 393.377 332.645 393.447C333.034 393.517 332.977 394.603 332.5 395.969C332.061 397.295 331.54 398.39 331.387 398.47C331.194 398.513 331.16 398.785 331.283 399.131C331.406 399.478 331.341 400.099 331.077 400.453C330.852 400.845 330.3 402.367 329.825 403.81C329.133 406.11 329.021 406.305 328.921 405.145C328.828 404.371 328.491 402.982 328.162 402.058C327.872 401.095 326.989 399.561 326.312 398.605C325.198 397.153 325.193 396.92 326.198 396.746C326.854 396.618 327.084 396.458 326.734 396.426C326.345 396.356 325.946 395.744 325.815 395.01C325.722 394.236 325.318 393.391 324.964 393.126C324.569 392.746 324.521 392.928 324.82 393.672C325.186 394.556 325.029 394.482 324.04 393.454C322.971 392.273 322.969 392.195 324.017 392.292C324.678 392.395 325.657 392.881 326.21 393.413C326.801 393.906 327.744 394.586 329.547 395.559L329.592 393.931C329.612 392.961 329.791 392.222 330.024 392.217C330.256 392.213 330.206 391.632 329.958 390.862C329.712 390.169 328.36 388.411 326.898 387.005C325.475 385.559 324.68 384.566 325.227 384.788C326.047 385.122 326.046 385.044 325.374 384.398C324.978 383.94 324.156 383.529 323.574 383.502C322.682 383.48 322.72 383.44 323.647 383.268Z" fill="#BBA653"/>
<path d="M323.514 406.177C324.049 405.779 324.311 405.27 324.074 405.042C323.875 404.775 323.946 404.463 324.291 404.263C324.637 404.14 325.298 404.244 325.771 404.623C326.242 404.924 327.112 405.838 327.631 406.564C328.507 407.788 328.369 408.643 326.213 415.312C324.899 419.445 323.685 422.762 323.452 422.767C323.22 422.771 323.13 422.153 323.192 421.376C323.294 420.638 323.211 420.329 323.063 420.72C322.954 421.071 322.61 421.348 322.259 421.239C321.908 421.129 321.942 420.857 322.325 420.617C322.668 420.34 323.206 420.097 323.554 420.052C323.864 420.046 324.169 419.807 324.242 419.573C324.314 419.262 324.112 418.84 323.875 418.611C323.532 418.282 323.419 418.452 323.536 419.122C323.666 419.856 323.549 419.819 323.027 418.86C322.588 418.209 322.256 417.13 322.206 416.55C322.194 415.93 321.873 415.393 321.484 415.323C321.097 415.331 321.366 415.209 322.062 415.119C322.758 415.028 323.577 415.284 323.855 415.627C324.251 416.085 324.174 416.086 323.586 415.749C323.115 415.448 322.612 415.496 322.54 415.807C322.431 416.158 322.785 416.423 323.486 416.565C324.613 416.737 324.575 416.777 323.414 416.876C322.293 417.013 322.217 417.092 322.847 417.623C323.242 418.003 323.789 418.225 324.136 418.103C324.444 418.019 324.589 417.474 324.501 416.933C324.374 416.432 324.519 415.886 324.865 415.763C325.212 415.641 324.973 415.335 324.346 414.959C323.68 414.623 322.744 414.331 322.24 414.301C321.503 414.276 321.538 414.082 322.381 413.601C323.299 412.964 323.296 412.809 322.196 412.054C321.45 411.564 321.055 411.184 321.249 411.219C321.443 411.254 321.677 411.327 321.758 411.481C321.877 411.595 322.54 411.854 323.242 412.073C324.022 412.291 324.376 412.556 324.03 412.678C323.683 412.801 323.615 413.268 323.741 413.769C323.944 414.269 324.417 414.648 324.882 414.639C325.398 414.629 325.638 414.302 325.599 413.657C325.55 413.154 325.424 412.652 325.344 412.499C325.225 412.385 324.906 411.925 324.665 411.465C324.384 410.966 324.412 410.462 324.759 410.339C325.105 410.216 325.383 410.56 325.553 411.332C325.728 412.336 325.806 412.335 325.86 411.171C325.886 410.512 325.759 409.933 325.526 409.937C325.294 409.941 325.12 409.015 325.098 407.852C325.113 406.65 325.21 405.68 325.403 405.637C325.596 405.595 325.514 405.364 325.237 405.098C324.921 404.794 324.69 404.875 324.7 405.34C324.669 405.767 324.405 406.121 324.017 406.128C323.669 406.174 323.75 406.327 324.295 406.472C325.075 406.69 325.037 406.729 324.11 406.902C323.376 407.032 323.033 407.31 323.156 407.656C323.279 408.003 323.628 408.035 324.011 407.795C324.469 407.399 324.627 407.551 324.639 408.171C324.613 408.83 324.267 408.953 323.369 408.621C322.667 408.402 322.273 408.099 322.504 408.017C322.773 407.896 322.884 407.623 322.762 407.354C322.601 407.047 322.978 406.497 323.514 406.177Z" fill="#BBA653"/>
<path fill-rule="evenodd" clip-rule="evenodd" d="M285.461 114.033C286.183 113.283 287.791 112.245 289.021 111.756C290.252 111.268 294.12 110.885 297.647 110.857C301.136 110.869 304.202 111.083 304.361 111.312C304.521 111.542 304.882 112.194 305.124 112.654C305.449 113.423 305.226 113.893 304.042 114.807C302.935 115.641 302.711 116.111 303.065 116.375C303.418 116.562 303.425 116.95 303.118 117.111C302.813 117.349 302.702 117.622 302.86 117.775C303.096 117.925 303.451 118.267 303.65 118.535C303.927 118.801 303.857 119.19 303.548 119.273C303.202 119.396 303.402 119.741 303.951 120.041C304.539 120.378 305.002 120.292 305.148 119.824C305.256 119.396 305.416 119.626 305.469 120.361C305.521 121.019 305.533 121.639 305.417 121.68C305.379 121.719 305.261 121.605 305.063 121.415C304.943 121.224 304.588 120.881 304.273 120.655C304.036 120.427 303.571 120.435 303.381 120.633C303.128 120.896 303.523 121.276 304.566 121.773C305.61 122.27 305.939 122.587 305.554 122.724C305.246 122.807 304.7 122.662 304.384 122.358C304.068 122.054 303.602 121.985 303.412 122.183C303.158 122.446 303.553 122.826 304.597 123.323C305.64 123.82 305.969 124.137 305.584 124.273C305.276 124.357 304.73 124.212 304.414 123.908C304.098 123.604 303.708 123.456 303.556 123.614C303.366 123.811 303.685 124.27 304.275 124.686C304.864 125.101 305.27 126.023 305.212 127.032C305.191 127.924 305.043 128.314 304.881 127.93C304.796 127.544 304.48 127.24 304.288 127.36C304.019 127.481 304.171 127.323 304.554 127.083C305.129 126.724 305.05 126.648 304.313 126.623C303.498 126.599 303.348 126.835 303.328 127.804C303.302 128.464 303.627 129.233 303.943 129.537C304.364 129.891 304.412 129.709 304.088 128.991C303.603 127.993 303.641 127.953 304.699 128.515C305.521 128.926 305.682 129.233 305.299 129.472C304.993 129.711 305.001 130.098 305.314 130.247C305.628 130.474 305.636 130.861 305.329 131.022C305.024 131.261 305.031 131.648 305.344 131.797C305.659 132.024 305.666 132.411 305.359 132.572C305.054 132.81 305.062 133.198 305.375 133.347C305.729 133.612 305.619 133.962 305.007 134.362C304.317 134.762 304.247 135.151 304.683 135.647C305.04 136.066 305.475 136.484 305.671 136.597C305.868 136.787 305.756 136.983 305.448 137.066C305.139 137.15 305.034 137.733 305.2 138.273C305.568 139.235 305.568 139.235 304.63 138.865C304.004 138.566 303.962 138.373 304.463 138.248C305.08 138.081 305.001 138.005 304.3 137.863C303.6 137.721 303.521 137.645 304.098 137.441C304.6 137.315 304.667 136.771 304.262 135.926C303.858 135.081 303.925 134.537 304.387 134.373C305.004 134.207 304.925 134.131 304.224 133.989C303.447 133.848 303.445 133.771 304.217 133.601C304.989 133.432 304.987 133.354 304.209 133.214C303.431 133.073 303.43 132.996 304.202 132.826C304.974 132.657 304.972 132.579 304.194 132.439C303.416 132.299 303.415 132.221 304.186 132.051C304.958 131.882 304.957 131.804 304.179 131.664C303.401 131.524 303.399 131.446 304.171 131.277C304.943 131.107 304.942 131.03 304.164 130.889C303.386 130.749 303.384 130.671 304.156 130.502C304.85 130.334 304.926 130.255 304.303 130.111C303.798 130.005 303.53 130.203 303.465 130.825C303.434 131.252 303.134 131.722 302.784 131.69C302.436 131.736 302.518 131.967 302.91 132.192C303.302 132.417 303.349 132.842 303.004 133.043C302.737 133.242 302.745 133.629 303.02 133.818C303.372 134.005 303.38 134.392 303.035 134.593C302.767 134.791 302.656 135.065 302.814 135.217C303.05 135.367 303.484 135.786 303.802 136.167C304.197 136.547 304.206 137.012 303.898 137.096C303.589 137.179 303.197 136.954 303.073 136.53C302.91 136.145 302.833 136.147 302.801 136.496C302.808 136.884 303.012 137.384 303.249 137.612C303.488 137.917 303.456 138.267 303.111 138.467C302.805 138.705 302.732 138.939 302.89 139.091C303.126 139.242 303.481 139.584 303.68 139.852C303.957 140.118 303.963 140.428 303.732 140.509C303.463 140.631 303.627 141.093 304.024 141.55C304.46 142.046 305.128 142.537 305.478 142.57C305.867 142.64 305.596 142.684 304.898 142.619C304.238 142.593 303.621 142.76 303.548 142.993C303.477 143.305 299.994 143.603 295.734 143.761C291.551 143.917 287.44 143.762 286.581 143.468C285.762 143.212 284.987 143.227 284.916 143.538C284.884 143.888 284.761 143.541 284.668 142.768C284.615 142.033 284.445 141.261 284.247 141.07C284.127 140.879 283.966 140.572 283.883 140.263C283.839 139.993 284.115 140.259 284.475 140.834C284.875 141.446 285.346 141.747 285.498 141.59C285.688 141.392 285.797 141.041 285.751 140.693C285.707 140.423 285.156 139.968 284.452 139.671C283.62 139.377 283.396 139.162 283.781 139.025C284.089 138.942 284.635 139.086 284.951 139.391C285.267 139.695 285.654 139.687 285.726 139.376C285.847 138.986 285.518 138.669 284.738 138.426C283.958 138.182 283.629 137.865 283.75 137.475C283.822 137.164 284.013 137.044 284.171 137.196C284.331 137.426 284.686 137.768 284.961 137.956C285.238 138.222 285.624 138.138 285.695 137.826C285.817 137.436 285.422 137.056 284.51 136.686C283.598 136.315 283.335 136.062 283.72 135.926C284.028 135.842 284.574 135.987 284.89 136.291C285.206 136.595 285.593 136.588 285.665 136.276C285.736 135.965 285.574 135.58 285.262 135.509C284.951 135.437 284.706 134.822 284.733 134.24C284.794 133.386 284.635 133.156 283.781 133.095C283.199 133.067 283.352 132.987 284.165 132.933C284.939 132.841 285.63 132.518 285.624 132.208C285.578 131.86 285.455 131.513 285.258 131.323C285.1 131.171 284.87 131.33 284.799 131.642C284.727 131.953 284.343 132.115 284.031 132.044C283.72 131.972 283.714 131.662 284.019 131.424C284.326 131.263 284.279 130.838 283.887 130.612C283.495 130.387 283.413 130.156 283.761 130.111C284.071 130.105 284.487 129.593 284.67 129.009C284.774 128.425 284.609 127.886 284.141 127.739C283.712 127.631 283.942 127.472 284.677 127.419C285.335 127.368 285.955 127.356 285.957 127.434C286.036 127.51 285.922 127.628 285.73 127.748C285.501 127.908 285.165 128.573 284.986 129.313C284.768 130.092 284.898 130.748 285.288 130.896C285.756 131.042 286.078 133.633 286.148 137.198C286.136 140.531 286.417 143.006 286.683 142.73C286.911 142.493 289.694 142.131 292.753 141.957C295.811 141.783 298.595 141.42 298.861 141.144C299.089 140.907 299.235 136.486 299.134 131.372C299.034 126.257 299.283 121.175 299.65 120.083C300.055 119.029 300.534 117.741 300.68 117.273C300.826 116.805 301.774 115.741 302.804 114.907C304.1 113.798 304.629 113.09 304.537 112.394C304.443 111.543 304.326 111.507 303.918 112.406C303.547 113.266 302.465 113.441 298.47 113.322C294.398 113.205 293.387 112.992 293.292 112.141C293.121 111.292 293.083 111.331 292.985 112.302C292.843 112.925 292.429 113.591 292.083 113.714C291.659 113.838 290.402 114.986 289.263 116.17C287.859 117.708 286.959 119.276 286.417 121.263C285.944 122.861 285.385 123.995 285.034 123.886C284.723 123.814 284.221 123.94 283.994 124.176C283.612 124.494 283.81 124.684 284.702 124.706C285.748 124.725 285.827 124.801 285.215 125.2C284.832 125.44 284.762 125.829 285.115 126.016C285.39 126.204 285.627 126.432 285.589 126.472C285.552 126.589 284.933 126.601 284.273 126.574C283.614 126.548 283.301 126.399 283.57 126.277C283.839 126.156 283.986 125.766 283.826 125.536C283.705 125.267 283.498 124.612 283.451 124.187C283.325 123.685 283.048 123.419 282.702 123.542C282.394 123.625 282.015 124.097 281.945 124.486C281.763 125.071 281.684 124.995 281.55 124.106C281.423 123.527 281.603 122.865 281.912 122.782C282.22 122.698 282.328 122.27 282.205 121.923C282.005 121.578 282.173 120.296 282.615 119.125C283.058 117.954 283.574 116.626 283.76 116.197C283.984 115.805 284.74 114.783 285.461 114.033V114.033ZM297.592 113.998C297.744 113.84 299.06 113.738 300.494 113.749C302.628 113.825 302.901 113.937 302.137 114.494C301.6 114.814 301.104 115.172 300.95 115.252C300.797 115.333 300.491 115.571 300.38 115.845C300.23 116.08 300.031 115.812 299.982 115.309C299.967 114.535 299.653 114.308 298.568 114.328C297.831 114.303 297.363 114.157 297.592 113.998V113.998Z" fill="#E79287"/>
<path d="M319.35 154.246C308.734 154.446 299.701 154.345 299.385 154.041C299.069 153.737 307.471 153.307 318.165 153.105C328.819 152.866 337.814 153.006 338.13 153.311C338.446 153.615 330.006 154.084 319.35 154.246Z" fill="#495154"/>
<path d="M311.791 160.125C311.563 160.362 308.468 160.652 304.981 160.718C301.416 160.785 298.815 160.563 299.119 160.247C299.423 159.931 308.29 159.493 318.906 159.293C329.445 159.094 337.819 159.169 337.591 159.406C337.325 159.682 331.635 160.061 324.932 160.226C318.268 160.351 312.686 160.302 312.526 160.072C312.405 159.803 312.057 159.848 311.791 160.125Z" fill="#495154"/>
<path d="M310.238 183.719C295.091 184.121 282.728 184.16 282.682 183.812C282.676 183.502 283.601 183.252 284.802 183.191C286.004 183.207 286.974 183.305 287.055 183.459C287.136 183.612 287.328 183.57 287.518 183.372C287.67 183.214 291.154 182.994 295.146 182.957C299.175 182.881 302.746 183.124 303.062 183.428C303.378 183.732 303.65 183.766 303.644 183.456C303.598 183.108 311.381 182.69 320.912 182.51C330.366 182.332 338.04 182.343 337.967 182.576C337.894 182.81 325.385 183.317 310.238 183.719Z" fill="#495154"/>
<path d="M316.55 177.476C305.042 177.655 295.428 177.603 295.191 177.375C294.954 177.147 294.872 176.916 294.986 176.798C295.1 176.679 304.979 176.454 316.952 176.267C328.965 176.118 338.502 176.249 338.16 176.604C337.819 176.959 328.097 177.336 316.55 177.476Z" fill="#495154"/>
<path d="M314.044 445.036C313.734 445.042 313.298 444.547 313.131 443.93C312.964 443.313 313.108 442.767 313.454 442.644C313.802 442.599 314.229 442.63 314.428 442.897C314.588 443.127 314.399 443.402 314.013 443.487C313.474 443.626 313.476 443.755 314.021 443.874C314.41 443.944 315.048 444.862 315.376 445.786C315.705 446.71 315.802 447.716 315.612 447.914C315.384 448.151 315.585 448.496 316.015 448.681C316.536 448.93 316.541 449.188 316.03 449.456C315.607 449.658 315.463 450.203 315.665 450.626C315.867 451.048 315.799 451.515 315.49 451.598C315.144 451.721 315.031 451.917 315.229 452.107C315.387 452.259 315.142 453.62 313.754 457.91L313.779 455.274C313.751 453.801 313.919 452.519 314.111 452.399C314.38 452.278 314.254 451.776 313.933 451.24C313.612 450.703 313.564 450.2 313.91 450.078C314.219 449.994 314.211 449.607 313.895 449.303C313.579 448.999 313.407 448.149 313.588 447.487C313.729 446.786 313.562 446.169 313.175 446.177C312.825 446.145 312.976 445.909 313.59 445.588C314.165 445.305 314.393 445.069 314.044 445.036Z" fill="#495154"/>
<path d="M301.254 154.471C301.178 154.55 296.761 154.633 291.375 154.696C285.988 154.758 282.731 154.665 284.085 154.523C285.438 154.381 289.077 154.158 292.137 154.061C295.196 153.887 298.492 153.941 299.542 154.115C300.514 154.291 301.292 154.431 301.254 154.471Z" fill="#302831"/>
<path d="M300.205 160.304C300.13 160.383 296.913 160.405 293.038 160.478C286.605 160.522 286.488 160.485 291.522 160.235C294.62 160.099 297.796 159.962 298.61 159.986C299.425 160.009 300.123 160.073 300.202 160.149C300.242 160.187 300.243 160.265 300.205 160.304Z" fill="#302831"/>
<path d="M292.373 177.932C286.988 178.072 282.453 178.042 282.216 177.813C281.979 177.585 281.938 177.47 282.094 177.544C282.289 177.58 286.864 177.648 302.173 177.631L292.373 177.932Z" fill="#302831"/>
<path d="M315.414 427.957C315.761 427.834 315.521 427.451 314.854 427.037C313.872 426.397 313.907 426.202 315.088 425.133C315.964 424.381 316.657 424.135 317.168 424.474C317.601 424.815 318.256 424.609 318.825 424.017C319.357 423.464 319.933 423.182 320.17 423.41C320.368 423.6 321.14 423.43 321.866 422.913C322.594 422.473 322.98 422.388 322.831 422.701C322.644 423.053 322.729 423.439 323.08 423.549C323.391 423.62 321.993 429.422 319.997 436.32C318.002 443.295 316.147 449.493 315.926 450.117C315.633 450.975 315.591 450.782 315.601 449.348C315.659 448.339 315.53 445.706 315.334 443.617C315.215 441.526 315.183 439.899 315.341 440.051C315.539 440.241 315.723 441.71 315.969 446.357L316.022 443.139C316.027 441.394 315.721 439.656 315.326 439.276C314.971 438.934 314.886 438.548 315.232 438.425C315.578 438.302 315.572 437.992 315.296 437.726C315.097 437.459 314.761 436.147 314.658 434.831C314.632 433.514 314.728 432.466 315 432.499C315.311 432.571 315.269 432.378 314.992 432.112C314.755 431.884 314.746 431.419 315.012 431.143C315.279 430.944 315.457 430.126 315.366 429.43C315.226 428.232 315.226 428.232 315.133 429.435C315.107 430.094 314.925 430.679 314.769 430.604C314.574 430.569 314.44 429.68 314.419 428.596C314.36 427.55 314.466 427.044 314.589 427.391C314.714 427.815 315.068 428.08 315.414 427.957Z" fill="#302831"/>
<path d="M290.762 161.025C286.5 161.105 282.775 160.865 282.459 160.561C282.143 160.257 285.16 159.968 289.19 159.892C293.219 159.816 296.671 159.945 296.87 160.212C297.069 160.48 297.378 160.396 297.527 160.083C297.791 159.73 298.025 159.803 298.227 160.225C298.391 160.687 295.684 160.971 290.762 161.025Z" fill="#30555E"/>
<path d="M294.954 177.147C294.959 177.38 292.56 177.58 289.538 177.637C286.516 177.694 284.574 177.498 285.229 177.292C285.883 177.085 288.321 176.846 290.685 176.84C293.049 176.834 294.989 176.953 294.954 177.147Z" fill="#30555E"/>
<path d="M312.12 427.98C312.584 427.894 312.655 427.582 312.3 427.24C311.984 426.936 311.821 426.552 311.973 426.394C312.163 426.196 312.625 426.033 312.973 425.987C313.359 425.903 314.103 426.315 314.656 426.847C315.249 427.417 315.53 427.916 315.261 428.037C315.03 428.119 314.714 427.815 314.589 427.391C314.476 426.876 314.347 426.879 314.202 427.398C314.171 427.825 314.416 428.441 314.848 428.704C315.281 429.045 315.413 429.856 315.156 430.597C314.898 431.261 314.834 431.96 314.992 432.112C315.189 432.302 314.886 432.618 314.386 432.821C313.579 433.185 313.62 433.301 314.512 433.322C314.677 433.327 314.815 433.34 314.93 433.366L314.936 433.198C314.941 433.257 314.945 433.314 314.95 433.37C315.385 433.473 315.473 433.759 315.425 434.429C315.398 435.011 315.563 435.551 315.797 435.624C316.071 435.735 316.037 436.007 315.771 436.283C315.436 436.632 315.199 436.27 314.95 433.37C314.943 433.369 314.937 433.367 314.93 433.366L314.86 435.254C314.843 436.378 315.059 437.498 315.296 437.726C315.572 437.992 315.578 438.302 315.232 438.425C314.886 438.548 314.971 438.934 315.326 439.276C315.721 439.656 316.065 441.355 316.098 443.06C316.132 444.765 315.958 445.814 315.718 445.431C315.44 445.088 314.88 444.168 314.361 443.441C313.921 442.713 313.713 441.981 313.941 441.744C314.168 441.507 314.047 441.238 313.735 441.166C313.384 441.057 313.134 440.131 313.112 439.046C313.091 437.962 312.842 437.114 312.532 437.119C312.224 437.203 312.414 437.005 312.912 436.725C313.45 436.482 313.6 436.247 313.249 436.137C312.898 436.027 312.641 434.792 312.575 433.359C312.47 431.966 312.6 430.723 312.909 430.64C313.14 430.558 313.058 430.327 312.743 430.1C312.43 429.951 312.423 429.564 312.728 429.325C313.111 429.085 312.977 428.83 312.325 428.558C311.661 428.299 311.581 428.145 312.12 427.98Z" fill="#30555E"/>
<path d="M316.957 200.22L316.772 194.72L316.732 194.682C316.635 191.699 316.585 189.142 316.623 189.103C316.699 189.024 316.776 189.022 316.816 189.06C316.895 189.136 316.943 191.616 316.957 200.22Z" fill="#51ACD7"/>
<path d="M317.361 238.622L317.022 227.272C316.861 221.035 316.761 215.921 316.799 215.881C316.875 215.803 316.952 215.801 316.992 215.839C317.071 215.915 317.171 221.029 317.361 238.622Z" fill="#51ACD7"/>
<path d="M317.71 276.212L317.372 264.862C317.211 258.625 317.11 253.51 317.148 253.471C317.224 253.392 317.302 253.39 317.341 253.428C317.42 253.504 317.521 258.619 317.71 276.212Z" fill="#51ACD7"/>
<path d="M283.448 307.864L283.23 302.714C283.098 299.925 283.091 297.561 283.129 297.522C283.205 297.443 283.282 297.441 283.322 297.479C283.401 297.555 283.446 299.88 283.448 307.864Z" fill="#51ACD7"/>
<path d="M318.06 313.801L317.744 303.613C317.596 298.074 317.505 293.424 317.543 293.385C317.619 293.306 317.697 293.304 317.736 293.343C317.815 293.419 317.906 298.068 318.06 313.801Z" fill="#51ACD7"/>
<path d="M283.812 346.229L283.595 341.078C283.463 338.29 283.455 335.926 283.493 335.886C283.569 335.807 283.647 335.806 283.686 335.844C283.765 335.92 283.811 338.244 283.812 346.229Z" fill="#51ACD7"/>
<path d="M318.394 350.616L318.101 341.59C317.966 336.67 317.885 332.564 317.923 332.524C317.999 332.445 318.077 332.444 318.116 332.482C318.195 332.558 318.276 336.665 318.394 350.616Z" fill="#51ACD7"/>
<path d="M323.406 418.465C322.967 417.815 322.6 416.852 322.551 416.35C322.496 415.537 322.61 415.418 323.432 415.829C323.979 416.051 324.452 416.43 324.573 416.699C324.655 416.93 324.429 417.244 324.121 417.328C323.774 417.45 323.669 418.034 323.874 418.611C324.086 419.499 323.969 419.462 323.406 418.465Z" fill="#D0BB7D"/>
<path d="M323.879 397.1C324.453 396.741 324.443 396.198 323.882 395.278L323.843 395.24C323.004 393.977 323.004 393.977 324.215 394.458C324.88 394.795 325.509 395.248 325.632 395.594C325.756 395.941 325.607 396.254 325.26 396.377C324.914 396.499 324.924 397.042 325.207 397.618C325.491 398.271 325.502 398.814 325.195 398.975C324.888 399.135 324.301 398.875 323.867 398.457C323.274 397.887 323.267 397.499 323.879 397.1Z" fill="#BBA653"/>
<path d="M304.194 118.602C304.148 118.254 303.977 117.405 303.925 116.747C303.834 116.051 304.016 115.466 304.285 115.345C304.594 115.261 304.87 115.527 304.958 116.068C305.005 116.494 305.324 116.953 305.751 116.984C306.101 117.016 305.794 117.177 305.098 117.267C303.939 117.444 303.863 117.523 304.566 117.82C304.996 118.006 305.159 118.39 304.893 118.667C304.627 118.943 304.278 118.911 304.194 118.602Z" fill="#E79287"/>
<path d="M301.892 183.062C301.778 183.181 298.757 183.315 295.115 183.384C291.473 183.453 288.681 183.35 288.833 183.192C288.985 183.034 292.043 182.861 295.609 182.871C299.175 182.881 302.006 182.944 301.892 183.062Z" fill="#495154"/>
<path d="M302.211 183.522C302.135 183.601 298.416 183.671 293.882 183.717L285.627 183.757L293.877 183.485C298.41 183.361 302.129 183.291 302.169 183.329C302.248 183.405 302.249 183.482 302.211 183.522Z" fill="#302831"/>
<path d="M296.787 159.903C296.673 160.022 294.35 160.143 291.56 160.196C288.77 160.248 286.675 160.133 286.827 159.975C287.017 159.778 289.34 159.656 292.054 159.683C294.768 159.709 296.901 159.785 296.787 159.903Z" fill="#30555E"/>
</svg>
