<svg width="101" height="1439" viewBox="0 0 101 1439" fill="none" xmlns="http://www.w3.org/2000/svg">
<path d="M79.7183 1272C79.3183 1272.9 79.9183 1274 81.2183 1274.9C82.6183 1275.8 82.9183 1276.5 82.1183 1276.7C81.5183 1276.8 79.8183 1275.9 78.4183 1274.5C77.0183 1273.2 75.9183 1271.2 75.9183 1270C75.9183 1268.9 76.5183 1267.7 77.1183 1267.4C77.8183 1267.1 79.1183 1267.6 79.9183 1268.5C80.8183 1269.6 80.9183 1270 80.1183 1269.6C79.5183 1269.3 78.9183 1269.4 78.9183 1270C78.9183 1270.5 78.3183 1270.7 77.7183 1270.2C76.8517 1269.73 76.685 1269.9 77.2183 1270.7C77.6183 1271.4 78.5183 1271.7 79.1183 1271.2C79.985 1270.73 80.185 1271 79.7183 1272Z" fill="#FEBA74"/>
<path d="M50.2184 81.7999C77.4184 81.6999 99.8184 81.8999 100.018 82.1999C100.218 82.5999 100.318 99 100.118 118.7C100.018 138.4 99.8184 157.8 99.4184 169L50.9184 169.2C24.2184 169.3 1.81839 169 1.1184 168.7C0.218395 168.1 -0.0815998 158.2 0.0184002 123.8C0.1184 99.3999 0.318405 80.0999 0.518402 80.7999C0.818405 81.6999 11.5184 81.9999 50.2184 81.7999Z" fill="#D2D3D4"/>
<path d="M34.0183 1378C34.0183 1377.2 34.9183 1379.2 35.9183 1382.5C36.9183 1385.8 37.7183 1389.4 37.7183 1390.5C37.8183 1391.6 36.9183 1389.6 35.9183 1386C34.8183 1382.4 34.0183 1378.8 34.0183 1378Z" fill="#D2D3D4"/>
<path d="M98.9183 1087.6C99.5183 1088.2 100.018 1111.9 100.218 1152.5C100.318 1187.7 100.518 1224.8 100.718 1235C100.918 1251.6 100.718 1254.1 98.8183 1259.5C97.7183 1262.8 96.1183 1265.8 95.3183 1266.2C94.5183 1266.7 93.9183 1267.9 93.9183 1269C93.9183 1270.2 93.3183 1270.9 92.5183 1270.7C91.7183 1270.6 90.7183 1270.2 90.2183 1269.7C89.8183 1269.3 89.1183 1269 88.6183 1269C88.2183 1269 87.9183 1269.9 87.9183 1271C87.9183 1272.1 87.4183 1273 86.9183 1273C86.3183 1273 85.0183 1272.5 83.9183 1272C82.8183 1271.5 80.8183 1269.3 77.1183 1263.5L76.5184 1008C76.2184 867.5 75.7184 698.7 75.3184 633C75.0184 565.5 74.3184 513.1 73.8184 512.6C73.3184 512 72.9184 501.3 72.9184 488.8C72.9184 474.6 73.3184 465.8 73.9184 465.5C74.5184 465.2 74.9184 456 74.9184 441C74.9184 426 74.5184 416.8 73.9184 416.5C73.2184 416.2 72.9184 394.1 72.9184 353.3C72.9184 316.4 73.2184 290.1 73.8184 289.5C74.3184 288.9 74.9184 264.8 75.1184 232.8C75.3184 196 75.1184 177 74.4184 177C73.8184 176.9 74.6184 176.3 76.1184 175.5C78.7184 174.1 78.8184 173.9 77.1184 172.5C76.1184 171.6 75.9184 171.1 76.6184 171C77.3184 171 77.7184 170.6 77.4184 170C77.1184 169.4 79.0184 169 82.1184 169.1C86.1184 169.1 86.9184 169.4 85.4184 170C84.0184 170.7 85.7184 170.9 90.7184 170.7C96.3184 170.6 98.2184 170.9 98.9184 172C99.4184 172.8 99.9184 173.8 99.9184 174.2C99.9184 174.7 99.5184 174.8 98.9184 174.5C98.3184 174.2 97.7184 174.7 97.4184 175.5C97.1184 176.3 96.9184 184 96.9184 192.5C96.9184 205.4 97.2184 208.1 98.4184 208.5C99.7184 208.9 99.9184 223.2 99.9184 329C99.9184 408 99.6184 449.2 98.9184 449.5C98.2184 449.8 97.9184 472 97.9184 513C97.9184 554 98.2184 576.2 98.9184 576.5C99.6184 576.8 99.9184 602 99.9184 649C99.9184 696 99.6184 721.2 98.9184 721.5C98.3184 721.8 97.9184 741.5 97.9184 777.5C97.9184 813.5 98.3184 833.2 98.9184 833.5C99.5184 833.8 99.9184 837.4 99.9184 841.5C99.9184 845.6 99.5184 849.2 98.9184 849.5C98.2184 849.8 97.9184 890.4 97.9184 968.3C97.9183 1045.3 98.2183 1086.9 98.9183 1087.6Z" fill="#C97D28"/>
<path d="M17.8183 1250.2C18.7183 1254.9 19.4183 1256.2 21.4183 1257C22.8183 1257.5 23.9183 1258.5 23.9183 1259.3C23.9183 1260 23.2183 1260.4 22.4183 1260.3C21.4183 1260.1 20.7183 1261 20.4183 1263C20.1183 1264.7 19.2183 1266.7 18.4183 1267.5C17.6183 1268.3 15.9183 1269 14.6183 1269C13.4183 1269.1 11.5183 1268.2 10.4183 1267.1C9.31834 1265.9 8.11834 1265.3 7.61834 1265.5C7.21834 1265.8 7.11834 1264.4 7.41834 1262.5C7.71834 1260.5 7.51834 1259 6.91834 1259C6.31834 1259 5.91834 1258.3 5.91834 1257.5C5.91834 1256.7 5.31833 1256.1 4.61834 1256.2C3.71834 1256.4 3.41834 1253.5 3.31834 1244.5C3.21834 1237.9 2.81834 1220 2.51834 1204.7C2.11834 1186.5 2.21835 1177 2.91834 1177C3.61834 1177 4.01834 1134.6 4.11835 1052.2C4.31835 953.1 4.51835 940 4.91835 988.5C5.21835 1022 5.51835 935.9 5.51836 797C5.61836 658.1 5.31837 546.5 4.21837 553.5L3.61837 544.5L2.91837 549C2.51837 551.5 2.11837 526.2 2.11837 492.7C1.91838 432.5 1.91838 432 3.91838 432.5C5.91838 433 5.91838 432.6 5.41838 312.5L4.91838 369C4.51838 416 4.31838 404.5 3.91838 300C3.61838 231 3.71838 173.8 4.11839 173C4.81838 171.7 4.81839 171.7 4.91839 173C4.91839 173.9 5.21838 174.1 5.71838 173.5C6.11839 172.9 8.81838 172.6 11.6184 172.7C14.5184 172.9 16.9184 173.4 16.9184 174C16.9184 174.6 16.3184 175 15.6184 175C14.7184 174.9 14.7184 175.2 15.6184 176.2C16.4184 177.2 16.8184 250.4 17.1184 469.2C17.2184 629.6 17.6184 760.7 17.9184 760.5C18.2184 760.3 18.1184 762.7 17.7184 765.9C17.4184 769 17.0184 774.2 17.0184 777.5C16.9184 780.9 17.3184 784 17.7184 784.5C18.2184 785.1 18.2184 888.8 17.6183 1015C16.9183 1182.8 17.0183 1246 17.8183 1250.2Z" fill="#C97D28"/>
<path fill-rule="evenodd" clip-rule="evenodd" d="M94.4184 1271.5C94.0184 1272.6 93.3184 1275.3 92.8184 1277.5C92.4184 1279.7 91.5184 1283.1 90.9184 1285C90.4184 1286.9 89.9184 1289.6 89.9184 1291C89.9184 1292.4 89.3184 1294.8 88.4184 1296.5C87.6184 1298.2 86.2184 1302.9 85.4184 1307C84.5184 1311.1 83.3184 1316.1 82.7184 1318C82.1184 1319.9 80.7184 1325.1 79.7184 1329.5C78.7184 1333.9 77.2184 1340.4 76.4184 1344C75.6184 1347.6 74.0184 1353.7 72.8184 1357.5C71.7184 1361.3 69.9184 1368.1 68.9184 1372.5C67.9184 1376.9 66.5184 1382.3 65.7184 1384.5C64.2184 1388.5 64.2184 1388.5 63.6184 1385.8C63.2184 1384.2 62.2184 1381.9 61.4184 1380.5C60.3184 1378.7 59.0184 1378 56.9184 1378C55.3184 1378 52.9184 1378.5 51.6184 1379.1C50.4184 1379.8 48.7184 1381 47.9184 1381.9C47.0184 1382.8 44.9184 1385.6 43.1184 1388.2C41.3184 1390.9 39.5184 1393 38.9184 1393C38.3184 1393 37.9184 1392.2 37.9184 1391.3C37.9184 1390.3 36.2184 1383.4 34.0184 1376C31.8184 1368.6 29.1184 1358.7 28.0184 1354C26.9184 1349.3 25.1184 1342.8 24.0184 1339.5C22.9184 1336.2 21.3184 1330.6 20.5184 1327C19.8184 1323.4 17.7184 1315.3 16.1184 1309C14.4184 1302.7 11.9184 1293.2 10.5184 1288C9.11839 1282.8 7.91839 1277.5 7.91839 1276.2C7.91839 1275 7.51839 1274 6.91839 1274C6.3184 1274 5.61839 1273.2 5.31839 1272.3C5.01838 1271.3 4.61839 1268.9 4.31839 1267C4.11839 1265.1 3.3184 1261.8 2.41839 1259.8C1.3184 1257.1 0.918394 1252.6 1.01839 1244.3C1.01839 1237.8 1.41839 1230.7 1.81839 1228.5C2.51839 1224.7 2.61839 1224.9 3.31839 1232C3.71839 1236.1 3.91839 1241.9 3.71839 1244.8C3.51839 1247.6 3.11839 1250 2.71839 1250C2.21839 1250 2.11839 1251.2 2.31839 1252.8C2.61839 1254.3 2.8184 1255.7 2.91839 1256C3.11839 1256.3 3.01839 1257 2.91839 1257.5C2.8184 1258 3.41839 1257.8 4.31839 1257C5.81839 1255.7 6.01839 1255.7 5.91839 1257.3C5.91839 1258.2 6.3184 1259 6.91839 1259C7.51839 1259 7.7184 1260.5 7.41839 1262.5C7.11839 1264.4 7.21839 1265.8 7.71839 1265.5C8.11839 1265.3 9.3184 1265.9 10.4184 1267.1C11.5184 1268.2 13.4184 1269.1 14.7184 1269C15.9184 1269 17.6184 1268.3 18.4184 1267.5C19.2184 1266.7 20.1184 1264.7 20.9184 1260L26.2184 1263.7C29.0184 1265.7 33.4184 1268.3 35.9184 1269.4C39.0184 1270.7 42.7184 1271.4 47.4184 1271.4C53.5184 1271.5 55.4184 1271 61.4184 1268C65.3184 1266.1 69.9184 1263.3 71.7184 1261.8C74.6184 1259.2 75.0184 1259.1 75.9184 1260.8C76.4184 1261.7 76.5184 1262.8 76.1184 1263.3C75.7184 1263.7 76.0184 1264 76.7184 1264C77.3184 1264 78.3184 1264.9 78.9184 1266C79.7184 1267.6 79.6184 1268 78.2184 1267.8C77.0184 1267.6 76.3517 1268.27 76.2184 1269.8C76.0184 1271.1 76.9184 1273 78.4184 1274.5C79.8184 1275.9 81.5184 1277 82.2184 1277C82.8184 1276.9 82.5184 1276.2 81.3184 1275.2C80.2184 1274.3 79.5184 1272.8 79.8184 1272C80.1517 1271 79.9184 1270.77 79.1184 1271.3C78.4184 1271.7 77.6184 1271.4 77.2184 1270.8C76.6851 1269.93 76.8517 1269.77 77.7184 1270.3C78.3184 1270.7 79.0184 1270.5 79.1184 1269.9C79.3184 1269.2 80.1184 1269.5 81.2184 1270.6C82.7184 1272.1 82.8184 1272.6 81.7184 1273.1C81.0184 1273.5 80.8184 1274 81.4184 1274.2C82.0184 1274.5 83.2184 1275 84.2184 1275.3C85.6184 1275.9 85.7184 1275.7 85.0184 1274.3C84.2184 1272.7 84.6184 1272.5 87.8184 1272.8C90.2184 1273 92.0184 1272.5 93.3184 1271.3C95.2184 1269.6 95.2184 1269.6 94.4184 1271.5ZM18.7184 773.2C18.8184 779.7 18.6184 784.8 18.2184 784.6C17.7184 784.4 17.4184 775.3 17.4184 764.3C17.4184 751.8 17.6184 747.6 18.0184 753C18.3184 757.7 18.6184 766.8 18.7184 773.3L18.7184 773.2ZM18.4184 881.4C18.4184 917.2 18.3184 932 18.2184 914.4C18.0184 896.8 18.0184 867.6 18.2184 849.4C18.3184 831.2 18.4184 845.7 18.4184 881.4ZM17.9184 174.4C17.9184 179 17.8184 179.2 16.5184 177.4C15.4184 175.9 15.4184 175.2 16.2184 174.7C16.9184 174.3 17.2184 173.8 16.9184 173.6C16.6184 173.3 14.0184 173 11.2184 172.8C8.11844 172.6 5.91844 172.8 5.91844 173.4C5.91844 174 5.51844 173.7 5.01844 172.9C4.31844 171.6 4.11844 171.6 3.81844 172.9C3.61844 173.7 3.61844 230.9 3.91844 299.9C4.31843 404.4 4.51843 415.9 5.41844 312.4L5.71843 372.7C5.91842 432.5 5.91843 432.9 3.91843 432.4C1.91843 431.9 1.91843 432.4 2.11842 492.7C2.11842 526.1 2.51842 551.4 3.61842 544.4L4.21842 553.4L4.91843 548.9C5.31843 546.4 5.61842 658 5.51841 796.9C5.51841 935.8 5.21841 1021.9 4.91841 988.4C4.51841 939.9 4.3184 953 4.1184 1052.2C4.0184 1120.8 3.61839 1176.9 3.21839 1176.9C2.71839 1176.9 2.11839 1174.8 1.61839 1172.2C1.21839 1169.5 0.918408 942.9 0.91842 668.4C0.918432 393.9 1.01844 169.3 1.21844 169.1C1.31844 169 4.71844 169.2 8.71844 169.6C12.7184 170 15.9184 170.9 15.9184 171.4C15.9184 172 16.4184 171.7 16.9184 170.9C17.6184 169.8 17.9184 170.8 17.9184 174.4ZM17.4184 416.4C17.4184 447.8 17.3184 460.4 17.2184 444.4C17.0184 428.4 17.0184 402.8 17.2184 387.4C17.3184 372 17.4184 385.1 17.4184 416.4ZM17.4184 1159.9C17.4184 1208.6 17.3184 1228.4 17.2184 1203.9C17.0184 1179.4 17.0184 1139.6 17.2184 1115.4C17.3184 1091.2 17.4184 1111.2 17.4184 1159.9Z" fill="#FBBB74"/>
<path d="M98.9184 849.5C99.6184 849.2 100.018 868.2 100.218 905.3C100.418 936.2 100.418 963.5 100.218 966C100.018 968.5 99.9184 996.9 99.9184 1029.3C99.9184 1068.1 99.6184 1087.8 98.9184 1087.5C98.2184 1087.2 97.9184 1046.5 97.9184 968.5C97.9184 890.5 98.2184 849.8 98.9184 849.5Z" fill="#BE8827"/>
<path d="M97.4184 176.3C97.7184 175 98.3184 174.2 98.9184 174.5C99.5184 174.9 99.9184 181.8 99.9184 192C99.9184 205.1 99.6184 208.9 98.6184 208.7C97.7184 208.4 97.3184 204.3 97.1184 193.4C97.0184 185.2 97.1184 177.5 97.4184 176.3Z" fill="#BE8827"/>
<path d="M97.9184 513C97.9184 472.1 98.3184 449.8 98.9184 449.4C99.6184 449 99.9184 470.4 99.9184 512.9C99.9184 555.3 99.6184 576.8 98.9184 576.5C98.2184 576.2 97.9184 554 97.9184 513Z" fill="#BE8827"/>
<path d="M97.9184 777.5C97.9184 741.6 98.3184 721.8 98.9184 721.4C99.6184 721 99.9184 739.9 99.9184 777.4C99.9184 814.8 99.6184 833.8 98.9184 833.5C98.3184 833.2 97.9184 813.5 97.9184 777.5Z" fill="#BE8827"/>
<path d="M86.4184 170C88.0184 169.6 91.1184 169.2 93.1184 169.1C95.2184 169.1 96.9184 169.4 96.9184 170C96.9184 170.6 94.1184 171 90.1184 170.9C84.9184 170.8 84.1184 170.6 86.4184 170Z" fill="#BE8827"/>
<path d="M90.4184 1270C90.7184 1270.5 91.4184 1270.8 92.0184 1270.5C92.7184 1270.3 93.0184 1270.6 92.7184 1271.3C92.4184 1272 91.3184 1272.6 90.1184 1272.7C88.5184 1272.9 87.9184 1272.5 87.9184 1271C87.9184 1269.9 88.3184 1269 88.9184 1269C89.5184 1269 90.1184 1269.4 90.4184 1270Z" fill="#BE8827"/>
<path d="M76.6184 171.4C75.8184 171.667 75.9851 172.033 77.1184 172.5C78.1184 172.9 78.9184 173.4 78.9184 173.6C78.9184 173.8 77.7184 174.7 76.1184 175.5C74.6184 176.3 73.8184 176.9 74.4184 177C75.1184 177 75.3184 196 75.1184 232.8C74.9184 264.8 74.3184 288.9 73.8184 289.5C73.2184 290.1 72.9184 316.4 72.9184 353.3C72.9184 394.1 73.2184 416.2 73.9184 416.5C74.5184 416.8 74.9184 426 74.9184 441C74.9184 456 74.5184 465.2 73.9184 465.5C73.3184 465.8 72.9184 474.7 72.9184 489C72.9184 501.7 73.2184 512.2 73.6184 512.4C74.1184 512.6 74.8184 584.7 75.4184 672.7C75.9184 760.6 76.4184 928.5 76.4184 1045.8C76.4184 1187.2 76.1184 1259 75.4184 1259.1C74.8184 1259.2 73.0184 1260.4 71.4184 1261.9C69.8184 1263.4 65.3184 1266.1 61.4184 1268C55.4184 1271 53.5184 1271.5 47.4184 1271.4C43.1184 1271.4 38.9184 1270.7 36.4184 1269.6C34.2184 1268.6 30.3184 1266.4 27.7184 1264.7C24.5184 1262.5 23.2184 1261 23.5184 1259.7C23.8184 1258.6 23.0184 1257.7 21.4184 1257C19.6184 1256.3 18.7184 1255 18.3184 1252.3C17.9184 1250.2 17.8184 1163.9 18.1184 1060.5C18.4184 957.1 18.3184 716.6 17.8184 526C17.0184 229.9 17.0184 179.4 18.2184 178.5C19.2184 177.8 19.4184 176.8 18.8184 175.2C18.1184 173.5 18.3184 173 19.4184 173C20.2184 173 20.9184 172.6 20.9184 172C20.9184 171.4 20.4184 171 19.9184 171C19.3184 171 18.9184 170.6 18.9184 170C18.9184 169.4 29.1184 169.1 47.8184 169.1C63.8184 169.2 77.0184 169.7 77.3184 170.1C77.6184 170.6 77.3184 171.2 76.6184 171.4Z" fill="#BE8827"/>
<path d="M56.4184 1378.3C60.1184 1378.6 60.4184 1378.9 62.5184 1383.9C64.1184 1387.8 64.5184 1389.8 63.8184 1391.6C63.3184 1392.9 62.5184 1396.4 61.9184 1399.2C61.4184 1402.1 59.4184 1410.1 57.5184 1417C55.5184 1423.9 53.4184 1431.3 52.8184 1433.5C52.1184 1435.7 51.3184 1437.9 51.1184 1438.5C50.8184 1439 50.1184 1438.2 49.3184 1436.5C48.6184 1434.8 46.0184 1425.7 43.5184 1416.2C40.9184 1406.8 38.9184 1397.9 38.9184 1396.5C38.9184 1395.1 39.9184 1392.6 41.1184 1390.9C42.4184 1389.1 45.4184 1385.5 47.9184 1382.9C52.0184 1378.4 52.7184 1378 56.4184 1378.3Z" fill="#58595B"/>
<path d="M92.3184 5.8C93.9184 6.8 96.0184 9.6 97.0184 12.1C98.7184 16.1 98.9184 19.4 98.7184 82.1L0.918392 82L0.918395 14L4.2184 9.8C6.2184 7.2 9.7184 4.4 18.4184 -3.51279e-06L48.6184 -2.1927e-06C76.2184 -9.8627e-07 79.4184 0.199999 84.1184 1.9C87.0184 3 90.7184 4.7 92.3184 5.8Z" fill="#EE3377"/>
<path fill-rule="evenodd" clip-rule="evenodd" d="M81.0184 1303.7C80.2184 1303.9 80.3184 1305.1 81.1184 1307.4C82.2184 1310.3 82.2184 1311.1 80.9184 1312.5C80.1184 1313.4 78.8184 1314.1 78.1184 1314C77.5184 1314 76.7184 1313.1 76.4184 1312C76.1184 1310.9 76.3184 1308.5 76.8184 1306.7C77.4184 1305 78.4184 1303.2 79.1184 1302.8C79.8184 1302.4 80.8184 1302.4 81.2184 1302.8C81.7184 1303.1 81.5184 1303.6 81.0184 1303.7ZM77.9184 1322.8C77.9184 1325.4 77.6184 1329 77.2184 1330.8C76.7184 1332.6 76.1184 1334 75.6184 1334C75.2184 1334 75.1184 1333.1 75.4184 1332C75.7184 1330.9 75.4184 1329.8 74.9184 1329.5C74.3184 1329.2 73.9184 1327.4 73.9184 1325.5C73.9184 1323.6 74.3184 1320.9 74.9184 1319.5C75.4184 1318.1 76.3184 1317.2 76.9184 1317.5C77.4184 1317.9 77.9184 1320.2 77.9184 1322.8ZM75.9184 1279C75.9184 1280.2 75.1184 1281.2 73.9184 1281.5C72.1184 1281.9 71.9184 1282.8 71.9184 1289C71.9184 1294.6 72.2184 1296 73.4184 1296C74.5184 1296 74.9184 1297.1 74.9184 1299.7C75.0184 1301.9 74.2184 1304.6 73.1184 1306C71.4184 1308.2 71.2184 1310.2 71.3184 1322C71.4184 1334.9 71.5184 1335.5 73.4184 1335.2C75.0184 1334.9 75.2184 1335.1 74.1184 1336.2C73.4184 1336.9 72.9184 1337.8 72.9184 1338.2C72.9184 1338.7 73.3184 1338.8 73.9184 1338.5C74.5184 1338.2 74.7184 1339.4 74.3184 1341.7C74.0184 1343.8 73.5184 1346.1 73.3184 1346.7C73.1184 1347.4 72.4184 1348 71.9184 1348C71.3184 1348 70.9184 1347.3 70.9184 1346.5C70.9184 1345.3 69.4184 1345 55.9184 1345L55.9184 1353C55.9184 1359.7 56.1184 1360.9 57.4184 1360.5C58.5184 1360.1 58.9184 1360.7 58.9184 1362.5C58.9184 1364.2 58.3184 1365.1 56.9184 1365.3C55.2184 1365.6 54.9184 1366.4 54.9184 1370.3C54.9184 1374.2 54.5184 1375.1 52.6184 1375.9C51.4184 1376.4 50.1184 1376.6 49.6184 1376.4C49.2184 1376.2 49.1184 1375.5 49.4184 1375C49.7184 1374.4 49.4184 1374 48.9184 1374C48.3184 1374 47.9184 1374.2 47.9184 1374.5C47.9184 1374.8 48.3184 1375.9 48.9184 1377C49.4184 1378.1 49.6184 1379.2 49.1184 1379.4C48.7184 1379.6 47.4184 1379.4 46.1184 1378.9C44.7184 1378.3 44.2184 1377.5 44.6184 1376.8C45.2184 1375.9 44.5184 1375.8 37.9184 1377L37.9184 1373.2C37.9184 1371.1 37.1184 1368.7 36.1184 1367.6C34.8184 1366.2 34.5184 1364.3 34.6184 1359.4C34.9184 1354.1 34.6184 1353.1 33.4184 1353.5C32.6184 1353.8 31.7184 1353.7 31.5184 1353.2C31.2184 1352.8 30.8184 1350.5 30.4184 1348C30.1184 1345.5 29.6184 1343.2 29.3184 1342.7C29.1184 1342.3 29.6184 1341.4 30.4184 1340.7C31.2184 1340.1 31.8184 1338.2 31.8184 1336.5C31.7184 1333.9 31.3184 1333.5 28.6184 1333.2C26.8184 1333.1 24.9184 1332.5 24.4184 1331.9C23.8184 1331.4 23.5184 1328.7 23.6184 1326C23.8184 1322.9 23.5184 1321.2 22.9184 1321.5C22.3184 1321.8 22.4184 1320.5 23.1184 1318.4C24.2184 1315.3 24.2184 1314.6 22.8184 1313.6C21.9184 1313 20.8184 1310.9 20.4184 1309C20.0184 1307.1 19.0184 1304.6 18.3184 1303.5C17.5184 1302.4 16.7184 1298.3 16.4184 1294.5C16.1184 1290.7 15.7184 1286.2 15.6184 1284.5C15.5184 1282.8 14.9184 1281.2 14.4184 1280.8C13.8184 1280.4 14.4184 1280 15.6184 1280C17.0184 1280 17.9184 1279.4 17.9184 1278.5C17.9184 1277.7 18.3184 1277 18.9184 1277C19.4184 1277 19.8184 1277.8 19.6184 1278.7C19.5184 1279.7 18.9184 1280.9 18.4184 1281.3C17.8184 1281.8 18.0184 1282 18.9184 1281.7C19.7184 1281.5 20.4184 1280.9 20.4184 1280.4C20.4184 1279.9 22.0184 1278 23.9184 1276.1C27.1184 1273 28.0184 1272.6 33.3184 1272.6C37.2184 1272.5 39.3184 1272.9 39.5184 1273.7C39.8184 1274.6 42.3184 1275 47.4184 1275C52.7184 1275 55.3184 1274.6 56.4184 1273.5C57.2184 1272.7 57.6184 1271.7 57.1184 1271.4C56.7184 1271 57.4184 1271.2 58.6184 1271.9C59.9184 1272.5 62.9184 1273 65.4184 1273C68.3184 1273 69.9184 1273.4 69.9184 1274.2C69.9184 1275.07 70.2184 1275 70.8184 1274C71.5184 1272.8 71.8184 1272.9 72.3184 1274.7C72.6184 1276 73.6184 1277 74.4184 1277C75.2184 1277 75.9184 1277.9 75.9184 1279ZM66.5184 1361.1C66.2184 1361.6 65.3184 1361.7 64.7184 1361.2C63.8184 1360.7 63.7184 1360.9 64.3184 1362C64.8184 1362.8 65.2184 1365.6 65.3184 1368.2C65.3184 1370.7 65.1184 1372.6 64.6184 1372.4C64.2184 1372.2 63.9184 1372.6 63.9184 1373.2C63.9184 1373.9 64.3184 1375.2 64.8184 1376C65.3184 1376.8 65.5184 1378.1 65.3184 1378.7C65.0517 1379.57 64.085 1379.17 62.4184 1377.5C60.4184 1375.5 60.1184 1374.6 60.9184 1373C61.4184 1371.9 62.5184 1370.8 63.1184 1370.6C63.8184 1370.3 63.4184 1370.1 62.1184 1370.1C60.4184 1370 60.0184 1369.5 60.4184 1368C60.7184 1366.9 61.3184 1366 61.9184 1366C62.4184 1366 62.7184 1365.3 62.4184 1364.5C62.1184 1363.7 62.5184 1362.3 63.1184 1361.5C63.8184 1360.6 65.0184 1360 65.7184 1360.1C66.4184 1360.1 66.8184 1360.6 66.5184 1361.1ZM16.9184 1274.7C16.9184 1275.4 16.0184 1276 14.9184 1276C13.8184 1276 12.8184 1276.5 12.6184 1277C12.5184 1277.7 11.8184 1277.6 10.7184 1276.8C9.81836 1276.1 8.91836 1274.2 8.71836 1272.5C8.41836 1269.7 8.61835 1269.5 11.4184 1269.8C13.0184 1270 15.0184 1270.9 15.6184 1271.8C16.3184 1272.7 16.9184 1274 16.9184 1274.7Z" fill="#FEBA74"/>
<path d="M4.21833 742C4.01833 709.3 4.01833 655.3 4.21833 622C4.31834 588.7 4.41833 615.5 4.41833 681.5C4.41833 747.5 4.31833 774.7 4.21833 742Z" fill="#C97D28"/>
<path d="M9.21838 780C9.01838 777.5 9.01838 773.7 9.21838 771.5C9.41838 769.3 9.61838 771.3 9.61838 776C9.61838 780.7 9.41838 782.5 9.21838 780Z" fill="#FBBB74"/>
<path d="M6.61837 1162.3C6.81837 1091.3 7.21837 1073.1 8.11837 1073.5C9.11837 1073.9 9.31837 1091.6 9.11837 1158.3C9.01836 1204.6 8.71836 1245 8.31836 1248C8.01836 1251 7.51836 1253 7.11836 1252.5C6.71836 1252 6.51836 1211.3 6.61837 1162.3Z" fill="#FBBB74"/>
<path d="M7.21837 1026C7.01837 1008.7 7.01837 979.9 7.21838 962C7.31838 944.1 7.41838 958.3 7.41837 993.5C7.41837 1028.7 7.31837 1043.3 7.21837 1026Z" fill="#FBBB74"/>
<path d="M5.21841 277C5.01841 261.3 5.01841 235.9 5.21841 220.5C5.31841 205.1 5.41841 217.9 5.41841 249C5.41841 280.1 5.3184 292.7 5.21841 277Z" fill="#FBBB74"/>
<path d="M5.21837 1189C5.01837 1164.5 5.01837 1124.7 5.21837 1100.5C5.31837 1076.3 5.41837 1096.3 5.41837 1145C5.41837 1193.7 5.31836 1213.5 5.21837 1189Z" fill="#FBBB74"/>
<path d="M90.4183 401C90.4183 365.8 90.7183 337 91.1183 337L91.2183 337C91.6183 337 91.9183 365.8 91.9183 401C91.9183 436.2 91.6183 465 91.2183 465C90.7183 465 90.4183 436.2 90.4183 401Z" fill="#BE8827"/>
<path d="M89.8183 648.5C89.8183 601.5 90.1183 577 90.8183 577C91.5183 577 91.8183 601.5 91.8183 648.5C91.8183 695.5 91.5183 720 90.8183 720C90.1183 720 89.8183 695.5 89.8183 648.5Z" fill="#BE8827"/>
<path d="M4.11832 524.5C3.91833 513.5 3.91833 495.7 4.11833 485C4.21832 474.3 4.31833 483.3 4.31833 505C4.31833 526.7 4.21832 535.5 4.11832 524.5Z" fill="#BE8827"/>
<path d="M2.1183 1025C1.91831 1007.1 1.91831 978.1 2.1183 960.5C2.2183 942.9 2.31831 957.5 2.31831 993C2.31831 1028.5 2.2183 1042.9 2.1183 1025Z" fill="#BE8827"/>
<path d="M36.9184 1344.5C38.0184 1344.2 39.1184 1343 39.3184 1341.8C39.4184 1340.5 39.6184 1341.5 39.5184 1344C39.4184 1346.7 38.8184 1349 37.9184 1349.7C37.1184 1350.4 36.1184 1351 35.7184 1351C35.2184 1351 34.9184 1349.7 34.9184 1348C34.9184 1345.8 35.5184 1344.9 36.9184 1344.5Z" fill="#FBBB74"/>
<path d="M21.9184 1300C21.9184 1298.1 22.5184 1296.9 23.5184 1296.6C24.7184 1296.3 25.0184 1296.9 24.7184 1299.3C24.5184 1301 23.8184 1302.5 23.2184 1302.7C22.4184 1302.9 21.9184 1301.9 21.9184 1300Z" fill="#FBBB74"/>
</svg>
